<svg width="58" height="59" xmlns="http://www.w3.org/2000/svg" xmlns:xlink="http://www.w3.org/1999/xlink" overflow="hidden"><defs><filter id="fx0" x="-10%" y="-10%" width="120%" height="120%" filterUnits="userSpaceOnUse" primitiveUnits="userSpaceOnUse"><feComponentTransfer color-interpolation-filters="sRGB"><feFuncR type="discrete" tableValues="0 0"/><feFuncG type="discrete" tableValues="0 0"/><feFuncB type="discrete" tableValues="0 0"/><feFuncA type="linear" slope="0.4" intercept="0"/></feComponentTransfer><feGaussianBlur stdDeviation="0.572011 0.572011"/></filter><filter id="fx1" x="-10%" y="-10%" width="120%" height="120%" filterUnits="userSpaceOnUse" primitiveUnits="userSpaceOnUse"><feComponentTransfer color-interpolation-filters="sRGB"><feFuncR type="discrete" tableValues="0 0"/><feFuncG type="discrete" tableValues="0 0"/><feFuncB type="discrete" tableValues="0 0"/><feFuncA type="linear" slope="0.4" intercept="0"/></feComponentTransfer><feGaussianBlur stdDeviation="0.572011 0.572011"/></filter><clipPath id="clip2"><rect x="911" y="286" width="58" height="59"/></clipPath><clipPath id="clip3"><rect x="18" y="16" width="12" height="17"/></clipPath><clipPath id="clip4"><rect x="0" y="0" width="47" height="55"/></clipPath><clipPath id="clip5"><rect x="18" y="16" width="12" height="17"/></clipPath><clipPath id="clip6"><rect x="0" y="0" width="48" height="55"/></clipPath></defs><g clip-path="url(#clip2)" transform="translate(-911 -286)"><path d="M912 295C912 290.03 916.03 286 921 286L957 286C961.97 286 966 290.03 966 295L966 332C966 336.97 961.97 341 957 341L921 341C916.03 341 912 336.97 912 332Z" fill="#C92A19" fill-rule="evenodd"/><g clip-path="url(#clip3)" filter="url(#fx0)" transform="translate(910 290)"><g clip-path="url(#clip4)"><path d="M10.8281-0.867188C10.8281-0.726562 10.8184-0.601562 10.7988-0.492188 10.7793-0.382812 10.752-0.291016 10.7168-0.216797 10.6816-0.142578 10.6348-0.0878906 10.5762-0.0527344 10.5176-0.0175781 10.4531 0 10.3828 0L2.00391 0C1.89453 0 1.79883-0.0136719 1.7168-0.0410156 1.63477-0.0683594 1.56445-0.113281 1.50586-0.175781 1.44727-0.238281 1.4043-0.328125 1.37695-0.445312 1.34961-0.5625 1.33594-0.707031 1.33594-0.878906 1.33594-1.03516 1.34198-1.17188 1.35406-1.28906 1.36615-1.40625 1.3923-1.50977 1.43253-1.59961 1.47275-1.68945 1.52307-1.7793 1.5835-1.86914 1.64392-1.95898 1.72241-2.05469 1.81897-2.15625L4.84991-5.27344C5.55035-5.99219 6.11191-6.63672 6.53458-7.20703 6.95724-7.77734 7.28329-8.29688 7.51273-8.76562 7.74216-9.23438 7.8931-9.66016 7.96555-10.043 8.03799-10.4258 8.07422-10.7852 8.07422-11.1211 8.07422-11.457 8.01779-11.7754 7.90494-12.0762 7.79208-12.377 7.62884-12.6406 7.41522-12.8672 7.2016-13.0937 6.93356-13.2734 6.61111-13.4062 6.28867-13.5391 5.91785-13.6055 5.49866-13.6055 5.00696-13.6055 4.56561-13.5391 4.17462-13.4062 3.78363-13.2734 3.44101-13.1289 3.14676-12.9727 2.85251-12.8164 2.60666-12.6719 2.40921-12.5391 2.21176-12.4062 2.06464-12.3398 1.96783-12.3398 1.91144-12.3398 1.86105-12.3555 1.81668-12.3867 1.77231-12.418 1.73602-12.4687 1.70782-12.5391 1.67963-12.6094 1.65747-12.7031 1.64136-12.8203 1.62524-12.9375 1.61719-13.0781 1.61719-13.2422 1.61719-13.3594 1.62109-13.4609 1.62891-13.5469 1.63672-13.6328 1.65039-13.707 1.66992-13.7695 1.68945-13.832 1.71484-13.8906 1.74609-13.9453 1.77734-14 1.83984-14.0684 1.93359-14.1504 2.02734-14.2324 2.18945-14.3437 2.41992-14.4844 2.65039-14.625 2.93945-14.7637 3.28711-14.9004 3.63477-15.0371 4.01758-15.1523 4.43555-15.2461 4.85352-15.3398 5.29297-15.3867 5.75391-15.3867 6.48828-15.3867 7.13086-15.2832 7.68164-15.0762 8.23242-14.8691 8.68945-14.5859 9.05273-14.2266 9.41602-13.8672 9.6875-13.4492 9.86719-12.9727 10.0469-12.4961 10.1367-11.9883 10.1367-11.4492 10.1367-10.9648 10.0938-10.4824 10.0078-10.002 9.92188-9.52148 9.74023-9.00195 9.46289-8.44336 9.18555-7.88477 8.78516-7.26367 8.26172-6.58008 7.73828-5.89648 7.04297-5.10938 6.17578-4.21875L3.77344-1.71094 10.3711-1.71094C10.4336-1.71094 10.4941-1.69336 10.5527-1.6582 10.6113-1.62305 10.6621-1.57031 10.7051-1.5 10.748-1.42969 10.7793-1.3418 10.7988-1.23633 10.8184-1.13086 10.8281-1.00781 10.8281-0.867188Z" transform="translate(17.812 32)"/></g></g><text font-family="Calibri,Calibri_MSFontService,sans-serif" font-weight="400" font-size="24" transform="translate(927.116 321)">2</text><g clip-path="url(#clip5)" filter="url(#fx1)" transform="translate(922 290)"><g clip-path="url(#clip6)"><path d="M10.7578-4.875C10.7578-4.0625 10.6211-3.33984 10.3477-2.70703 10.0742-2.07422 9.6875-1.54102 9.1875-1.10742 8.6875-0.673828 8.0918-0.34375 7.40039-0.117188 6.70898 0.109375 5.94141 0.222656 5.09766 0.222656 4.62891 0.222656 4.18359 0.189453 3.76172 0.123047 3.33984 0.0566406 2.96484-0.0253906 2.63672-0.123047 2.30859-0.220703 2.03906-0.316406 1.82812-0.410156 1.61719-0.503906 1.48242-0.578125 1.42383-0.632812 1.36523-0.6875 1.32422-0.738281 1.30078-0.785156 1.27734-0.832031 1.25586-0.888672 1.23633-0.955078 1.2168-1.02148 1.20312-1.10547 1.19531-1.20703 1.1875-1.30859 1.18359-1.42969 1.18359-1.57031 1.18359-1.70312 1.18945-1.82227 1.20117-1.92773 1.21289-2.0332 1.23438-2.11914 1.26562-2.18555 1.29688-2.25195 1.33398-2.30078 1.37695-2.33203 1.41992-2.36328 1.46875-2.37891 1.52344-2.37891 1.60156-2.37891 1.72266-2.33008 1.88672-2.23242 2.05078-2.13477 2.27148-2.0293 2.54883-1.91602 2.82617-1.80273 3.16992-1.69531 3.58008-1.59375 3.99023-1.49219 4.47656-1.44141 5.03906-1.44141 5.5625-1.44141 6.04297-1.50391 6.48047-1.62891 6.91797-1.75391 7.29492-1.94922 7.61133-2.21484 7.92773-2.48047 8.17578-2.81445 8.35547-3.2168 8.53516-3.61914 8.625-4.10938 8.625-4.6875 8.625-5.17188 8.54883-5.59961 8.39648-5.9707 8.24414-6.3418 8.00977-6.65039 7.69336-6.89648 7.37695-7.14258 6.97656-7.32617 6.49219-7.44727 6.00781-7.56836 5.42969-7.62891 4.75781-7.62891 4.28125-7.62891 3.87109-7.60547 3.52734-7.55859 3.18359-7.51172 2.86328-7.48828 2.56641-7.48828 2.34766-7.48828 2.19141-7.53906 2.09766-7.64062 2.00391-7.74219 1.95703-7.9375 1.95703-8.22656L1.95703-14.4023C1.95703-14.6602 2.01758-14.8516 2.13867-14.9766 2.25977-15.1016 2.43359-15.1641 2.66016-15.1641L9.375-15.1641C9.4375-15.1641 9.49805-15.1465 9.55664-15.1113 9.61523-15.0762 9.66406-15.0234 9.70312-14.9531 9.74219-14.8828 9.77148-14.793 9.79102-14.6836 9.81055-14.5742 9.82031-14.4453 9.82031-14.2969 9.82031-14.0156 9.7829-13.7969 9.70807-13.6406 9.63324-13.4844 9.5285-13.4062 9.39386-13.4062L3.97266-13.4062 3.97266-9.15234C4.23608-9.19141 4.50516-9.21484 4.77988-9.22266 5.0546-9.23047 5.37262-9.23438 5.73395-9.23438 6.56927-9.23438 7.29932-9.13086 7.92407-8.92383 8.54883-8.7168 9.07007-8.42383 9.48779-8.04492 9.90552-7.66602 10.2216-7.20703 10.4361-6.66797 10.6506-6.12891 10.7578-5.53125 10.7578-4.875Z" transform="translate(17.9786 32)"/></g></g><text font-family="Calibri,Calibri_MSFontService,sans-serif" font-weight="400" font-size="24" transform="translate(939.282 321)">5</text></g></svg>