<svg width="57" height="59" xmlns="http://www.w3.org/2000/svg" xmlns:xlink="http://www.w3.org/1999/xlink" overflow="hidden"><defs><filter id="fx0" x="-10%" y="-10%" width="120%" height="120%" filterUnits="userSpaceOnUse" primitiveUnits="userSpaceOnUse"><feComponentTransfer color-interpolation-filters="sRGB"><feFuncR type="discrete" tableValues="0 0"/><feFuncG type="discrete" tableValues="0 0"/><feFuncB type="discrete" tableValues="0 0"/><feFuncA type="linear" slope="0.4" intercept="0"/></feComponentTransfer><feGaussianBlur stdDeviation="0.572011 0.572011"/></filter><clipPath id="clip1"><rect x="613" y="286" width="57" height="59"/></clipPath><clipPath id="clip2"><rect x="17" y="16" width="25" height="17"/></clipPath><clipPath id="clip3"><rect x="0" y="0" width="59" height="55"/></clipPath></defs><g clip-path="url(#clip1)" transform="translate(-613 -286)"><path d="M614 295C614 290.03 618.03 286 623 286L659 286C663.97 286 668 290.03 668 295L668 332C668 336.97 663.97 341 659 341L623 341C618.03 341 614 336.97 614 332Z" fill="#4552CD" fill-rule="evenodd"/><g clip-path="url(#clip2)" filter="url(#fx0)" transform="translate(612 290)"><g clip-path="url(#clip3)"><path d="M10.8281-0.867188C10.8281-0.726562 10.8184-0.601562 10.7988-0.492188 10.7793-0.382812 10.752-0.291016 10.7168-0.216797 10.6816-0.142578 10.6348-0.0878906 10.5762-0.0527344 10.5176-0.0175781 10.4531 0 10.3828 0L2.00391 0C1.89453 0 1.79883-0.0136719 1.7168-0.0410156 1.63477-0.0683594 1.56445-0.113281 1.50586-0.175781 1.44727-0.238281 1.4043-0.328125 1.37695-0.445312 1.34961-0.5625 1.33594-0.707031 1.33594-0.878906 1.33594-1.03516 1.34198-1.17188 1.35406-1.28906 1.36615-1.40625 1.3923-1.50977 1.43253-1.59961 1.47275-1.68945 1.52307-1.7793 1.5835-1.86914 1.64392-1.95898 1.72241-2.05469 1.81897-2.15625L4.84991-5.27344C5.55035-5.99219 6.11191-6.63672 6.53458-7.20703 6.95724-7.77734 7.28329-8.29688 7.51273-8.76562 7.74216-9.23438 7.8931-9.66016 7.96555-10.043 8.03799-10.4258 8.07422-10.7852 8.07422-11.1211 8.07422-11.457 8.01779-11.7754 7.90494-12.0762 7.79208-12.377 7.62884-12.6406 7.41522-12.8672 7.2016-13.0937 6.93356-13.2734 6.61111-13.4062 6.28867-13.5391 5.91785-13.6055 5.49866-13.6055 5.00696-13.6055 4.56561-13.5391 4.17462-13.4062 3.78363-13.2734 3.44101-13.1289 3.14676-12.9727 2.85251-12.8164 2.60666-12.6719 2.40921-12.5391 2.21176-12.4062 2.06464-12.3398 1.96783-12.3398 1.91144-12.3398 1.86105-12.3555 1.81668-12.3867 1.77231-12.418 1.73602-12.4687 1.70782-12.5391 1.67963-12.6094 1.65747-12.7031 1.64136-12.8203 1.62524-12.9375 1.61719-13.0781 1.61719-13.2422 1.61719-13.3594 1.62109-13.4609 1.62891-13.5469 1.63672-13.6328 1.65039-13.707 1.66992-13.7695 1.68945-13.832 1.71484-13.8906 1.74609-13.9453 1.77734-14 1.83984-14.0684 1.93359-14.1504 2.02734-14.2324 2.18945-14.3437 2.41992-14.4844 2.65039-14.625 2.93945-14.7637 3.28711-14.9004 3.63477-15.0371 4.01758-15.1523 4.43555-15.2461 4.85352-15.3398 5.29297-15.3867 5.75391-15.3867 6.48828-15.3867 7.13086-15.2832 7.68164-15.0762 8.23242-14.8691 8.68945-14.5859 9.05273-14.2266 9.41602-13.8672 9.6875-13.4492 9.86719-12.9727 10.0469-12.4961 10.1367-11.9883 10.1367-11.4492 10.1367-10.9648 10.0938-10.4824 10.0078-10.002 9.92188-9.52148 9.74023-9.00195 9.46289-8.44336 9.18555-7.88477 8.78516-7.26367 8.26172-6.58008 7.73828-5.89648 7.04297-5.10938 6.17578-4.21875L3.77344-1.71094 10.3711-1.71094C10.4336-1.71094 10.4941-1.69336 10.5527-1.6582 10.6113-1.62305 10.6621-1.57031 10.7051-1.5 10.748-1.42969 10.7793-1.3418 10.7988-1.23633 10.8184-1.13086 10.8281-1.00781 10.8281-0.867188ZM23.0299-0.796875C23.0299-0.648438 23.0182-0.523438 22.9948-0.421875 22.9714-0.320312 22.9401-0.238281 22.901-0.175781 22.862-0.113281 22.8171-0.0683594 22.7663-0.0410156 22.7155-0.0136719 22.6628 0 22.6081 0L14.6862 0C14.6315 0 14.5807-0.0136719 14.5339-0.0410156 14.487-0.0683594 14.4421-0.113281 14.3991-0.175781 14.3561-0.238281 14.3229-0.320312 14.2995-0.421875 14.276-0.523438 14.2643-0.648438 14.2643-0.796875 14.2643-0.9375 14.276-1.05859 14.2995-1.16016 14.3229-1.26172 14.3522-1.3457 14.3874-1.41211 14.4225-1.47852 14.4655-1.5293 14.5163-1.56445 14.5671-1.59961 14.6237-1.61719 14.6862-1.61719L17.8503-1.61719 17.8503-13.1484 14.9206-11.4023C14.7721-11.3242 14.653-11.2773 14.5632-11.2617 14.4733-11.2461 14.401-11.2637 14.3464-11.3145 14.2917-11.3652 14.2546-11.4492 14.235-11.5664 14.2155-11.6836 14.2057-11.832 14.2057-12.0117 14.2057-12.1445 14.2116-12.2578 14.2233-12.3516 14.235-12.4453 14.2526-12.5234 14.276-12.5859 14.2995-12.6484 14.3327-12.7031 14.3757-12.75 14.4186-12.7969 14.4753-12.8437 14.5456-12.8906L18.0378-15.1289C18.069-15.1523 18.1081-15.1719 18.1549-15.1875 18.2018-15.2031 18.2604-15.2187 18.3307-15.2344 18.401-15.25 18.4831-15.2598 18.5768-15.2637 18.6706-15.2676 18.7878-15.2695 18.9284-15.2695 19.1159-15.2695 19.2721-15.2617 19.3971-15.2461 19.5221-15.2305 19.6198-15.209 19.6901-15.1816 19.7604-15.1543 19.8073-15.1191 19.8307-15.0762 19.8542-15.0332 19.8659-14.9883 19.8659-14.9414L19.8659-1.61719 22.6081-1.61719C22.6706-1.61719 22.7292-1.59961 22.7839-1.56445 22.8385-1.5293 22.8835-1.47852 22.9186-1.41211 22.9538-1.3457 22.9811-1.26172 23.0007-1.16016 23.0202-1.05859 23.0299-0.9375 23.0299-0.796875Z" transform="translate(17.3937 32)"/></g></g><text font-family="Calibri,Calibri_MSFontService,sans-serif" font-weight="400" font-size="24" transform="translate(628.697 321)">21</text></g></svg>