<svg width="58" height="60" xmlns="http://www.w3.org/2000/svg" xmlns:xlink="http://www.w3.org/1999/xlink" overflow="hidden"><defs><filter id="fx0" x="-10%" y="-10%" width="120%" height="120%" filterUnits="userSpaceOnUse" primitiveUnits="userSpaceOnUse"><feComponentTransfer color-interpolation-filters="sRGB"><feFuncR type="discrete" tableValues="0 0"/><feFuncG type="discrete" tableValues="0 0"/><feFuncB type="discrete" tableValues="0 0"/><feFuncA type="linear" slope="0.4" intercept="0"/></feComponentTransfer><feGaussianBlur stdDeviation="0.572011 0.572011"/></filter><filter id="fx1" x="-10%" y="-10%" width="120%" height="120%" filterUnits="userSpaceOnUse" primitiveUnits="userSpaceOnUse"><feComponentTransfer color-interpolation-filters="sRGB"><feFuncR type="discrete" tableValues="0 0"/><feFuncG type="discrete" tableValues="0 0"/><feFuncB type="discrete" tableValues="0 0"/><feFuncA type="linear" slope="0.4" intercept="0"/></feComponentTransfer><feGaussianBlur stdDeviation="0.572011 0.572011"/></filter><clipPath id="clip2"><rect x="242" y="360" width="58" height="60"/></clipPath><clipPath id="clip3"><rect x="18" y="16" width="12" height="17"/></clipPath><clipPath id="clip4"><rect x="0" y="0" width="48" height="56"/></clipPath><clipPath id="clip5"><rect x="17" y="16" width="13" height="17"/></clipPath><clipPath id="clip6"><rect x="0" y="0" width="47" height="56"/></clipPath></defs><g clip-path="url(#clip2)" transform="translate(-242 -360)"><path d="M243 370C243 365.03 247.03 361 252 361L289 361C293.97 361 298 365.03 298 370L298 406C298 410.97 293.97 415 289 415L252 415C247.03 415 243 410.97 243 406Z" fill="#F28974" fill-rule="evenodd"/><g clip-path="url(#clip3)" filter="url(#fx0)" transform="translate(241 364)"><g clip-path="url(#clip4)"><path d="M10.8281-0.867188C10.8281-0.726562 10.8184-0.601562 10.7988-0.492188 10.7793-0.382812 10.752-0.291016 10.7168-0.216797 10.6816-0.142578 10.6348-0.0878906 10.5762-0.0527344 10.5176-0.0175781 10.4531 0 10.3828 0L2.00391 0C1.89453 0 1.79883-0.0136719 1.7168-0.0410156 1.63477-0.0683594 1.56445-0.113281 1.50586-0.175781 1.44727-0.238281 1.4043-0.328125 1.37695-0.445312 1.34961-0.5625 1.33594-0.707031 1.33594-0.878906 1.33594-1.03516 1.34198-1.17188 1.35406-1.28906 1.36615-1.40625 1.3923-1.50977 1.43253-1.59961 1.47275-1.68945 1.52307-1.7793 1.5835-1.86914 1.64392-1.95898 1.72241-2.05469 1.81897-2.15625L4.84991-5.27344C5.55035-5.99219 6.11191-6.63672 6.53458-7.20703 6.95724-7.77734 7.28329-8.29688 7.51273-8.76562 7.74216-9.23438 7.8931-9.66016 7.96555-10.043 8.03799-10.4258 8.07422-10.7852 8.07422-11.1211 8.07422-11.457 8.01779-11.7754 7.90494-12.0762 7.79208-12.377 7.62884-12.6406 7.41522-12.8672 7.2016-13.0937 6.93356-13.2734 6.61111-13.4062 6.28867-13.5391 5.91785-13.6055 5.49866-13.6055 5.00696-13.6055 4.56561-13.5391 4.17462-13.4062 3.78363-13.2734 3.44101-13.1289 3.14676-12.9727 2.85251-12.8164 2.60666-12.6719 2.40921-12.5391 2.21176-12.4062 2.06464-12.3398 1.96783-12.3398 1.91144-12.3398 1.86105-12.3555 1.81668-12.3867 1.77231-12.418 1.73602-12.4687 1.70782-12.5391 1.67963-12.6094 1.65747-12.7031 1.64136-12.8203 1.62524-12.9375 1.61719-13.0781 1.61719-13.2422 1.61719-13.3594 1.62109-13.4609 1.62891-13.5469 1.63672-13.6328 1.65039-13.707 1.66992-13.7695 1.68945-13.832 1.71484-13.8906 1.74609-13.9453 1.77734-14 1.83984-14.0684 1.93359-14.1504 2.02734-14.2324 2.18945-14.3437 2.41992-14.4844 2.65039-14.625 2.93945-14.7637 3.28711-14.9004 3.63477-15.0371 4.01758-15.1523 4.43555-15.2461 4.85352-15.3398 5.29297-15.3867 5.75391-15.3867 6.48828-15.3867 7.13086-15.2832 7.68164-15.0762 8.23242-14.8691 8.68945-14.5859 9.05273-14.2266 9.41602-13.8672 9.6875-13.4492 9.86719-12.9727 10.0469-12.4961 10.1367-11.9883 10.1367-11.4492 10.1367-10.9648 10.0938-10.4824 10.0078-10.002 9.92188-9.52148 9.74023-9.00195 9.46289-8.44336 9.18555-7.88477 8.78516-7.26367 8.26172-6.58008 7.73828-5.89648 7.04297-5.10938 6.17578-4.21875L3.77344-1.71094 10.3711-1.71094C10.4336-1.71094 10.4941-1.69336 10.5527-1.6582 10.6113-1.62305 10.6621-1.57031 10.7051-1.5 10.748-1.42969 10.7793-1.3418 10.7988-1.23633 10.8184-1.13086 10.8281-1.00781 10.8281-0.867188Z" transform="translate(17.9389 32)"/></g></g><text font-family="Calibri,Calibri_MSFontService,sans-serif" font-weight="400" font-size="24" transform="translate(258.242 396)">2</text><g clip-path="url(#clip5)" filter="url(#fx1)" transform="translate(254 364)"><g clip-path="url(#clip6)"><path d="M11.1797-3.89062C11.1797-3.23438 11.0625-2.65039 10.8281-2.13867 10.5938-1.62695 10.2559-1.19531 9.81445-0.84375 9.37305-0.492188 8.82812-0.226562 8.17969-0.046875 7.53125 0.132812 6.78906 0.222656 5.95312 0.222656 5.17188 0.222656 4.47266 0.140625 3.85547-0.0234375 3.23828-0.1875 2.71484-0.429688 2.28516-0.75 1.85547-1.07031 1.52734-1.46484 1.30078-1.93359 1.07422-2.40234 0.960937-2.9375 0.960938-3.53906 0.960937-4.01562 1.03906-4.45312 1.19531-4.85156 1.35156-5.25 1.57617-5.61719 1.86914-5.95312 2.16211-6.28906 2.52344-6.60352 2.95312-6.89648 3.38281-7.18945 3.86719-7.46875 4.40625-7.73438 3.9375-7.97656 3.52344-8.23242 3.16406-8.50195 2.80469-8.77148 2.5-9.06445 2.25-9.38086 2-9.69727 1.81055-10.0352 1.68164-10.3945 1.55273-10.7539 1.48828-11.1445 1.48828-11.5664 1.48828-12.0977 1.58398-12.5957 1.77539-13.0605 1.9668-13.5254 2.25586-13.9297 2.64258-14.2734 3.0293-14.6172 3.52148-14.8887 4.11914-15.0879 4.7168-15.2871 5.41406-15.3867 6.21094-15.3867 6.97656-15.3867 7.63867-15.2949 8.19727-15.1113 8.75586-14.9277 9.2168-14.6777 9.58008-14.3613 9.94336-14.0449 10.2109-13.6719 10.3828-13.2422 10.5547-12.8125 10.6406-12.3516 10.6406-11.8594 10.6406-11.4609 10.5762-11.0781 10.4473-10.7109 10.3184-10.3438 10.1289-9.99609 9.87891-9.66797 9.62891-9.33984 9.32227-9.0332 8.95898-8.74805 8.5957-8.46289 8.17969-8.19531 7.71094-7.94531 8.26562-7.67187 8.75977-7.39062 9.19336-7.10156 9.62695-6.8125 9.99023-6.50195 10.2832-6.16992 10.5762-5.83789 10.7988-5.48633 10.9512-5.11523 11.1035-4.74414 11.1797-4.33594 11.1797-3.89062ZM8.64844-11.6719C8.64844-12 8.5918-12.2969 8.47852-12.5625 8.36523-12.8281 8.19922-13.0547 7.98047-13.2422 7.76172-13.4297 7.49023-13.5723 7.16602-13.6699 6.8418-13.7676 6.47266-13.8164 6.05859-13.8164 5.21484-13.8164 4.57617-13.625 4.14258-13.2422 3.70898-12.8594 3.49219-12.3359 3.49219-11.6719 3.49219-11.3672 3.54492-11.084 3.65039-10.8223 3.75586-10.5605 3.91992-10.3125 4.14258-10.0781 4.36523-9.84375 4.64648-9.61523 4.98633-9.39258 5.32617-9.16992 5.73047-8.9375 6.19922-8.69531 6.98828-9.10156 7.59375-9.55078 8.01562-10.043 8.4375-10.5352 8.64844-11.0781 8.64844-11.6719ZM9.14062-3.67969C9.14062-4.03906 9.07422-4.36523 8.94141-4.6582 8.80859-4.95117 8.60742-5.22461 8.33789-5.47852 8.06836-5.73242 7.73242-5.97852 7.33008-6.2168 6.92773-6.45508 6.46094-6.70312 5.92969-6.96094 5.4375-6.71875 5.00586-6.47656 4.63477-6.23438 4.26367-5.99219 3.95898-5.74219 3.7207-5.48438 3.48242-5.22656 3.30273-4.95508 3.18164-4.66992 3.06055-4.38477 3-4.07031 3-3.72656 3-2.96875 3.25977-2.38281 3.7793-1.96875 4.29883-1.55469 5.07422-1.34766 6.10547-1.34766 7.10547-1.34766 7.86133-1.55664 8.37305-1.97461 8.88477-2.39258 9.14062-2.96094 9.14062-3.67969Z" transform="translate(17.1056 32)"/></g></g><text font-family="Calibri,Calibri_MSFontService,sans-serif" font-weight="400" font-size="24" transform="translate(270.409 396)">8</text></g></svg>