<svg width="58" height="59" xmlns="http://www.w3.org/2000/svg" xmlns:xlink="http://www.w3.org/1999/xlink" overflow="hidden"><defs><filter id="fx0" x="-10%" y="-10%" width="120%" height="120%" filterUnits="userSpaceOnUse" primitiveUnits="userSpaceOnUse"><feComponentTransfer color-interpolation-filters="sRGB"><feFuncR type="discrete" tableValues="0 0"/><feFuncG type="discrete" tableValues="0 0"/><feFuncB type="discrete" tableValues="0 0"/><feFuncA type="linear" slope="0.4" intercept="0"/></feComponentTransfer><feGaussianBlur stdDeviation="0.572011 0.572011"/></filter><clipPath id="clip1"><rect x="242" y="286" width="58" height="59"/></clipPath><clipPath id="clip2"><rect x="19" y="16" width="24" height="17"/></clipPath><clipPath id="clip3"><rect x="0" y="0" width="60" height="55"/></clipPath></defs><g clip-path="url(#clip1)" transform="translate(-242 -286)"><path d="M243 295.167C243 290.104 247.104 286 252.167 286L288.833 286C293.896 286 298 290.104 298 295.167L298 331.833C298 336.896 293.896 341 288.833 341L252.167 341C247.104 341 243 336.896 243 331.833Z" fill="#4472C4" fill-rule="evenodd"/><g clip-path="url(#clip2)" filter="url(#fx0)" transform="translate(241 290)"><g clip-path="url(#clip3)"><path d="M10.8633-0.796875C10.8633-0.648438 10.8516-0.523438 10.8281-0.421875 10.8047-0.320312 10.7734-0.238281 10.7344-0.175781 10.6953-0.113281 10.6504-0.0683594 10.5996-0.0410156 10.5488-0.0136719 10.4961 0 10.4414 0L2.51953 0C2.46484 0 2.41406-0.0136719 2.36719-0.0410156 2.32031-0.0683594 2.27539-0.113281 2.23242-0.175781 2.18945-0.238281 2.15625-0.320312 2.13281-0.421875 2.10938-0.523438 2.09766-0.648438 2.09766-0.796875 2.09766-0.9375 2.10938-1.05859 2.13281-1.16016 2.15625-1.26172 2.18555-1.3457 2.2207-1.41211 2.25586-1.47852 2.29883-1.5293 2.34961-1.56445 2.40039-1.59961 2.45703-1.61719 2.51953-1.61719L5.68359-1.61719 5.68359-13.1484 2.75391-11.4023C2.60547-11.3242 2.48633-11.2773 2.39648-11.2617 2.30664-11.2461 2.23438-11.2637 2.17969-11.3145 2.125-11.3652 2.08789-11.4492 2.06836-11.5664 2.04883-11.6836 2.03906-11.832 2.03906-12.0117 2.03906-12.1445 2.04492-12.2578 2.05664-12.3516 2.06836-12.4453 2.08594-12.5234 2.10938-12.5859 2.13281-12.6484 2.16602-12.7031 2.20898-12.75 2.25195-12.7969 2.30859-12.8437 2.37891-12.8906L5.87109-15.1289C5.90234-15.1523 5.94141-15.1719 5.98828-15.1875 6.03516-15.2031 6.09375-15.2187 6.16406-15.2344 6.23437-15.25 6.31641-15.2598 6.41016-15.2637 6.50391-15.2676 6.62109-15.2695 6.76172-15.2695 6.94922-15.2695 7.10547-15.2617 7.23047-15.2461 7.35547-15.2305 7.45312-15.209 7.52344-15.1816 7.59375-15.1543 7.64062-15.1191 7.66406-15.0762 7.6875-15.0332 7.69922-14.9883 7.69922-14.9414L7.69922-1.61719 10.4414-1.61719C10.5039-1.61719 10.5625-1.59961 10.6172-1.56445 10.6719-1.5293 10.7168-1.47852 10.752-1.41211 10.7871-1.3457 10.8145-1.26172 10.834-1.16016 10.8535-1.05859 10.8633-0.9375 10.8633-0.796875ZM23.3815-4.91016C23.3815-4.24609 23.2799-3.60352 23.0768-2.98242 22.8737-2.36133 22.5612-1.81445 22.1393-1.3418 21.7174-0.869141 21.1823-0.490234 20.5339-0.205078 19.8854 0.0800781 19.1198 0.222656 18.237 0.222656 17.6042 0.222656 17.0456 0.144531 16.5612-0.0117188 16.0768-0.167969 15.6549-0.390625 15.2956-0.679688 14.9362-0.96875 14.6374-1.32422 14.3991-1.74609 14.1608-2.16797 13.9694-2.64844 13.8249-3.1875 13.6803-3.72656 13.5768-4.31641 13.5143-4.95703 13.4518-5.59766 13.4206-6.28516 13.4206-7.01953 13.4206-7.66797 13.4557-8.32422 13.526-8.98828 13.5964-9.65234 13.7214-10.293 13.901-10.9102 14.0807-11.5273 14.3249-12.1074 14.6335-12.6504 14.9421-13.1934 15.3288-13.666 15.7936-14.0684 16.2585-14.4707 16.8151-14.7891 17.4635-15.0234 18.112-15.2578 18.8659-15.375 19.7253-15.375 20.0143-15.375 20.3073-15.3574 20.6042-15.3223 20.901-15.2871 21.1745-15.2402 21.4245-15.1816 21.6745-15.123 21.8854-15.0586 22.0573-14.9883 22.2292-14.918 22.3424-14.8613 22.3971-14.8184 22.4518-14.7754 22.4928-14.7285 22.5202-14.6777 22.5475-14.627 22.569-14.5723 22.5846-14.5137 22.6003-14.4551 22.612-14.3887 22.6198-14.3145 22.6276-14.2402 22.6315-14.1484 22.6315-14.0391 22.6315-13.8984 22.6296-13.7773 22.6257-13.6758 22.6217-13.5742 22.6061-13.4922 22.5788-13.4297 22.5514-13.3672 22.5163-13.3203 22.4733-13.2891 22.4303-13.2578 22.3737-13.2422 22.3034-13.2422 22.2174-13.2422 22.1003-13.2695 21.9518-13.3242 21.8034-13.3789 21.6237-13.4395 21.4128-13.5059 21.2018-13.5723 20.946-13.6328 20.6452-13.6875 20.3444-13.7422 19.9948-13.7695 19.5964-13.7695 18.8698-13.7695 18.2448-13.6211 17.7214-13.3242 17.1979-13.0273 16.7702-12.6289 16.4382-12.1289 16.1061-11.6289 15.86-11.0488 15.6999-10.3887 15.5397-9.72852 15.4479-9.03906 15.4245-8.32031 15.6276-8.4375 15.8561-8.55469 16.11-8.67188 16.3639-8.78906 16.6413-8.89453 16.9421-8.98828 17.2428-9.08203 17.5612-9.1582 17.8971-9.2168 18.2331-9.27539 18.5924-9.30469 18.9753-9.30469 19.7956-9.30469 20.487-9.19336 21.0495-8.9707 21.612-8.74805 22.0671-8.43945 22.4147-8.04492 22.7624-7.65039 23.0104-7.18555 23.1589-6.65039 23.3073-6.11523 23.3815-5.53516 23.3815-4.91016ZM21.3424-4.72266C21.3424-5.17578 21.2975-5.58789 21.2077-5.95898 21.1178-6.33008 20.9674-6.64453 20.7565-6.90234 20.5456-7.16016 20.2643-7.35937 19.9128-7.5 19.5612-7.64062 19.1276-7.71094 18.612-7.71094 18.3229-7.71094 18.0339-7.68555 17.7448-7.63477 17.4557-7.58398 17.1764-7.51367 16.9069-7.42383 16.6374-7.33398 16.3796-7.22852 16.1335-7.10742 15.8874-6.98633 15.6628-6.85547 15.4596-6.71484 15.4596-5.70703 15.5241-4.86328 15.653-4.18359 15.7819-3.50391 15.9694-2.95898 16.2155-2.54883 16.4616-2.13867 16.7682-1.8457 17.1354-1.66992 17.5026-1.49414 17.9323-1.40625 18.4245-1.40625 18.9245-1.40625 19.3581-1.5 19.7253-1.6875 20.0924-1.875 20.3971-2.12695 20.6393-2.44336 20.8815-2.75977 21.0592-3.11523 21.1725-3.50977 21.2858-3.9043 21.3424-4.30859 21.3424-4.72266Z" transform="translate(17.9389 32)"/></g></g><text font-family="Calibri,Calibri_MSFontService,sans-serif" font-weight="400" font-size="24" transform="translate(258.242 321)">16</text></g></svg>