<svg width="56" height="60" xmlns="http://www.w3.org/2000/svg" xmlns:xlink="http://www.w3.org/1999/xlink" overflow="hidden"><defs><filter id="fx0" x="-10%" y="-10%" width="120%" height="120%" filterUnits="userSpaceOnUse" primitiveUnits="userSpaceOnUse"><feComponentTransfer color-interpolation-filters="sRGB"><feFuncR type="discrete" tableValues="0 0"/><feFuncG type="discrete" tableValues="0 0"/><feFuncB type="discrete" tableValues="0 0"/><feFuncA type="linear" slope="0.4" intercept="0"/></feComponentTransfer><feGaussianBlur stdDeviation="0.572011 0.572011"/></filter><clipPath id="clip1"><rect x="613" y="117" width="56" height="60"/></clipPath><clipPath id="clip2"><rect x="17" y="16" width="13" height="17"/></clipPath><clipPath id="clip3"><rect x="0" y="0" width="47" height="56"/></clipPath></defs><g clip-path="url(#clip1)" transform="translate(-613 -117)"><path d="M614 127C614 122.03 618.03 118 623 118L659 118C663.97 118 668 122.03 668 127L668 163C668 167.97 663.97 172 659 172L623 172C618.03 172 614 167.97 614 163Z" fill="#4552CD" fill-rule="evenodd"/><g clip-path="url(#clip2)" filter="url(#fx0)" transform="translate(618 121)"><g clip-path="url(#clip3)"><path d="M11.2148-4.91016C11.2148-4.24609 11.1133-3.60352 10.9102-2.98242 10.707-2.36133 10.3945-1.81445 9.97266-1.3418 9.55078-0.869141 9.01562-0.490234 8.36719-0.205078 7.71875 0.0800781 6.95312 0.222656 6.07031 0.222656 5.4375 0.222656 4.87891 0.144531 4.39453-0.0117188 3.91016-0.167969 3.48828-0.390625 3.12891-0.679688 2.76953-0.96875 2.4707-1.32422 2.23242-1.74609 1.99414-2.16797 1.80273-2.64844 1.6582-3.1875 1.51367-3.72656 1.41016-4.31641 1.34766-4.95703 1.28516-5.59766 1.25391-6.28516 1.25391-7.01953 1.25391-7.66797 1.28906-8.32422 1.35938-8.98828 1.42969-9.65234 1.55469-10.293 1.73438-10.9102 1.91406-11.5273 2.1582-12.1074 2.4668-12.6504 2.77539-13.1934 3.16211-13.666 3.62695-14.0684 4.0918-14.4707 4.64844-14.7891 5.29688-15.0234 5.94531-15.2578 6.69922-15.375 7.55859-15.375 7.84766-15.375 8.14062-15.3574 8.4375-15.3223 8.73438-15.2871 9.00781-15.2402 9.25781-15.1816 9.50781-15.123 9.71875-15.0586 9.89062-14.9883 10.0625-14.918 10.1758-14.8613 10.2305-14.8184 10.2852-14.7754 10.3262-14.7285 10.3535-14.6777 10.3809-14.627 10.4023-14.5723 10.418-14.5137 10.4336-14.4551 10.4453-14.3887 10.4531-14.3145 10.4609-14.2402 10.4648-14.1484 10.4648-14.0391 10.4648-13.8984 10.4629-13.7773 10.459-13.6758 10.4551-13.5742 10.4395-13.4922 10.4121-13.4297 10.3848-13.3672 10.3496-13.3203 10.3066-13.2891 10.2637-13.2578 10.207-13.2422 10.1367-13.2422 10.0508-13.2422 9.93359-13.2695 9.78516-13.3242 9.63672-13.3789 9.45703-13.4395 9.24609-13.5059 9.03516-13.5723 8.7793-13.6328 8.47852-13.6875 8.17773-13.7422 7.82812-13.7695 7.42969-13.7695 6.70312-13.7695 6.07812-13.6211 5.55469-13.3242 5.03125-13.0273 4.60352-12.6289 4.27148-12.1289 3.93945-11.6289 3.69336-11.0488 3.5332-10.3887 3.37305-9.72852 3.28125-9.03906 3.25781-8.32031 3.46094-8.4375 3.68945-8.55469 3.94336-8.67188 4.19727-8.78906 4.47461-8.89453 4.77539-8.98828 5.07617-9.08203 5.39453-9.1582 5.73047-9.2168 6.06641-9.27539 6.42578-9.30469 6.80859-9.30469 7.62891-9.30469 8.32031-9.19336 8.88281-8.9707 9.44531-8.74805 9.90039-8.43945 10.248-8.04492 10.5957-7.65039 10.8438-7.18555 10.9922-6.65039 11.1406-6.11523 11.2148-5.53516 11.2148-4.91016ZM9.17578-4.72266C9.17578-5.17578 9.13086-5.58789 9.04102-5.95898 8.95117-6.33008 8.80078-6.64453 8.58984-6.90234 8.37891-7.16016 8.09766-7.35937 7.74609-7.5 7.39453-7.64062 6.96094-7.71094 6.44531-7.71094 6.15625-7.71094 5.86719-7.68555 5.57812-7.63477 5.28906-7.58398 5.00977-7.51367 4.74023-7.42383 4.4707-7.33398 4.21289-7.22852 3.9668-7.10742 3.7207-6.98633 3.49609-6.85547 3.29297-6.71484 3.29297-5.70703 3.35742-4.86328 3.48633-4.18359 3.61523-3.50391 3.80273-2.95898 4.04883-2.54883 4.29492-2.13867 4.60156-1.8457 4.96875-1.66992 5.33594-1.49414 5.76562-1.40625 6.25781-1.40625 6.75781-1.40625 7.19141-1.5 7.55859-1.6875 7.92578-1.875 8.23047-2.12695 8.47266-2.44336 8.71484-2.75977 8.89258-3.11523 9.00586-3.50977 9.11914-3.9043 9.17578-4.30859 9.17578-4.72266Z" transform="translate(17.477 32)"/></g></g><text font-family="Calibri,Calibri_MSFontService,sans-serif" font-weight="400" font-size="24" transform="translate(634.781 152)">6</text></g></svg>