<svg width="56" height="60" xmlns="http://www.w3.org/2000/svg" xmlns:xlink="http://www.w3.org/1999/xlink" overflow="hidden"><defs><filter id="fx0" x="-10%" y="-10%" width="120%" height="120%" filterUnits="userSpaceOnUse" primitiveUnits="userSpaceOnUse"><feComponentTransfer color-interpolation-filters="sRGB"><feFuncR type="discrete" tableValues="0 0"/><feFuncG type="discrete" tableValues="0 0"/><feFuncB type="discrete" tableValues="0 0"/><feFuncA type="linear" slope="0.4" intercept="0"/></feComponentTransfer><feGaussianBlur stdDeviation="0.572011 0.572011"/></filter><clipPath id="clip1"><rect x="687" y="117" width="56" height="60"/></clipPath><clipPath id="clip2"><rect x="18" y="16" width="12" height="17"/></clipPath><clipPath id="clip3"><rect x="0" y="0" width="48" height="56"/></clipPath></defs><g clip-path="url(#clip1)" transform="translate(-687 -117)"><path d="M688 127C688 122.03 692.03 118 697 118L733 118C737.97 118 742 122.03 742 127L742 163C742 167.97 737.97 172 733 172L697 172C692.03 172 688 167.97 688 163Z" fill="#89BB4D" fill-rule="evenodd"/><g clip-path="url(#clip2)" filter="url(#fx0)" transform="translate(692 121)"><g clip-path="url(#clip3)"><path d="M11.0508-14.2969C11.0508-14.1562 11.0449-14.0293 11.0332-13.916 11.0215-13.8027 11.0059-13.6934 10.9863-13.5879 10.9668-13.4824 10.9395-13.3809 10.9043-13.2832 10.8691-13.1855 10.8281-13.082 10.7812-12.9727L5.32031-0.386719C5.28125-0.292969 5.23242-0.216797 5.17383-0.158203 5.11523-0.0996094 5.04102-0.0527344 4.95117-0.0175781 4.86133 0.0175781 4.74609 0.0410156 4.60547 0.0527344 4.46484 0.0644531 4.29297 0.0703125 4.08984 0.0703125 3.82422 0.0703125 3.61719 0.0585937 3.46875 0.0351562 3.32031 0.0117188 3.21289-0.0253906 3.14648-0.0761719 3.08008-0.126953 3.05078-0.189453 3.05859-0.263672 3.06641-0.337891 3.09375-0.425781 3.14062-0.527344L8.88281-13.3945 1.60547-13.3945C1.45703-13.3945 1.3457-13.4727 1.27148-13.6289 1.19727-13.7852 1.16016-14.0039 1.16016-14.2852 1.16016-14.4336 1.16992-14.5625 1.18945-14.6719 1.20898-14.7812 1.23828-14.873 1.27734-14.9473 1.31641-15.0215 1.36328-15.0762 1.41797-15.1113 1.47266-15.1465 1.53516-15.1641 1.60547-15.1641L10.4414-15.1641C10.5508-15.1641 10.6465-15.1523 10.7285-15.1289 10.8105-15.1055 10.873-15.0586 10.916-14.9883 10.959-14.918 10.9922-14.8281 11.0156-14.7188 11.0391-14.6094 11.0508-14.4687 11.0508-14.2969Z" transform="translate(17.877 32)"/></g></g><text font-family="Calibri,Calibri_MSFontService,sans-serif" font-weight="400" font-size="24" transform="translate(709.181 152)">7</text></g></svg>