<svg width="58" height="59" xmlns="http://www.w3.org/2000/svg" xmlns:xlink="http://www.w3.org/1999/xlink" overflow="hidden"><defs><filter id="fx0" x="-10%" y="-10%" width="120%" height="120%" filterUnits="userSpaceOnUse" primitiveUnits="userSpaceOnUse"><feComponentTransfer color-interpolation-filters="sRGB"><feFuncR type="discrete" tableValues="0 0"/><feFuncG type="discrete" tableValues="0 0"/><feFuncB type="discrete" tableValues="0 0"/><feFuncA type="linear" slope="0.4" intercept="0"/></feComponentTransfer><feGaussianBlur stdDeviation="0.572011 0.572011"/></filter><clipPath id="clip1"><rect x="761" y="286" width="58" height="59"/></clipPath><clipPath id="clip2"><rect x="17" y="16" width="24" height="17"/></clipPath><clipPath id="clip3"><rect x="0" y="0" width="59" height="55"/></clipPath></defs><g clip-path="url(#clip1)" transform="translate(-761 -286)"><path d="M762 295.167C762 290.104 766.104 286 771.167 286L807.833 286C812.896 286 817 290.104 817 295.167L817 331.833C817 336.896 812.896 341 807.833 341L771.167 341C766.104 341 762 336.896 762 331.833Z" fill="#8F4D76" fill-rule="evenodd"/><g clip-path="url(#clip2)" filter="url(#fx0)" transform="translate(761 290)"><g clip-path="url(#clip3)"><path d="M10.8281-0.867188C10.8281-0.726562 10.8184-0.601562 10.7988-0.492188 10.7793-0.382812 10.752-0.291016 10.7168-0.216797 10.6816-0.142578 10.6348-0.0878906 10.5762-0.0527344 10.5176-0.0175781 10.4531 0 10.3828 0L2.00391 0C1.89453 0 1.79883-0.0136719 1.7168-0.0410156 1.63477-0.0683594 1.56445-0.113281 1.50586-0.175781 1.44727-0.238281 1.4043-0.328125 1.37695-0.445312 1.34961-0.5625 1.33594-0.707031 1.33594-0.878906 1.33594-1.03516 1.34198-1.17188 1.35406-1.28906 1.36615-1.40625 1.3923-1.50977 1.43253-1.59961 1.47275-1.68945 1.52307-1.7793 1.5835-1.86914 1.64392-1.95898 1.72241-2.05469 1.81897-2.15625L4.84991-5.27344C5.55035-5.99219 6.11191-6.63672 6.53458-7.20703 6.95724-7.77734 7.28329-8.29688 7.51273-8.76562 7.74216-9.23438 7.8931-9.66016 7.96555-10.043 8.03799-10.4258 8.07422-10.7852 8.07422-11.1211 8.07422-11.457 8.01779-11.7754 7.90494-12.0762 7.79208-12.377 7.62884-12.6406 7.41522-12.8672 7.2016-13.0937 6.93356-13.2734 6.61111-13.4062 6.28867-13.5391 5.91785-13.6055 5.49866-13.6055 5.00696-13.6055 4.56561-13.5391 4.17462-13.4062 3.78363-13.2734 3.44101-13.1289 3.14676-12.9727 2.85251-12.8164 2.60666-12.6719 2.40921-12.5391 2.21176-12.4062 2.06464-12.3398 1.96783-12.3398 1.91144-12.3398 1.86105-12.3555 1.81668-12.3867 1.77231-12.418 1.73602-12.4687 1.70782-12.5391 1.67963-12.6094 1.65747-12.7031 1.64136-12.8203 1.62524-12.9375 1.61719-13.0781 1.61719-13.2422 1.61719-13.3594 1.62109-13.4609 1.62891-13.5469 1.63672-13.6328 1.65039-13.707 1.66992-13.7695 1.68945-13.832 1.71484-13.8906 1.74609-13.9453 1.77734-14 1.83984-14.0684 1.93359-14.1504 2.02734-14.2324 2.18945-14.3437 2.41992-14.4844 2.65039-14.625 2.93945-14.7637 3.28711-14.9004 3.63477-15.0371 4.01758-15.1523 4.43555-15.2461 4.85352-15.3398 5.29297-15.3867 5.75391-15.3867 6.48828-15.3867 7.13086-15.2832 7.68164-15.0762 8.23242-14.8691 8.68945-14.5859 9.05273-14.2266 9.41602-13.8672 9.6875-13.4492 9.86719-12.9727 10.0469-12.4961 10.1367-11.9883 10.1367-11.4492 10.1367-10.9648 10.0938-10.4824 10.0078-10.002 9.92188-9.52148 9.74023-9.00195 9.46289-8.44336 9.18555-7.88477 8.78516-7.26367 8.26172-6.58008 7.73828-5.89648 7.04297-5.10938 6.17578-4.21875L3.77344-1.71094 10.3711-1.71094C10.4336-1.71094 10.4941-1.69336 10.5527-1.6582 10.6113-1.62305 10.6621-1.57031 10.7051-1.5 10.748-1.42969 10.7793-1.3418 10.7988-1.23633 10.8184-1.13086 10.8281-1.00781 10.8281-0.867188ZM22.8776-4.33594C22.8776-3.64062 22.7565-3.01367 22.5143-2.45508 22.2721-1.89648 21.9245-1.41797 21.4714-1.01953 21.0182-0.621094 20.4596-0.314453 19.7956-0.0996094 19.1315 0.115234 18.3815 0.222656 17.5456 0.222656 17.0378 0.222656 16.5632 0.181641 16.1217 0.0996094 15.6803 0.0175781 15.2878-0.0800781 14.944-0.193359 14.6003-0.306641 14.3151-0.423828 14.0885-0.544922 13.862-0.666016 13.7194-0.753906 13.6608-0.808594 13.6022-0.863281 13.5573-0.917969 13.526-0.972656 13.4948-1.02734 13.4674-1.09375 13.444-1.17188 13.4206-1.25 13.403-1.3457 13.3913-1.45898 13.3796-1.57227 13.3737-1.71094 13.3737-1.875 13.3737-2.15625 13.4017-2.35156 13.4578-2.46094 13.5139-2.57031 13.5941-2.625 13.6983-2.625 13.7705-2.625 13.9127-2.5625 14.1251-2.4375 14.3374-2.3125 14.6099-2.17773 14.9425-2.0332 15.2752-1.88867 15.6639-1.75391 16.1087-1.62891 16.5534-1.50391 17.0483-1.44141 17.5934-1.44141 18.1223-1.44141 18.5871-1.50781 18.9878-1.64062 19.3885-1.77344 19.7251-1.96094 19.9976-2.20312 20.2702-2.44531 20.4745-2.73242 20.6108-3.06445 20.747-3.39648 20.8151-3.75781 20.8151-4.14844 20.8151-4.57812 20.7284-4.96484 20.5549-5.30859 20.3815-5.65234 20.1273-5.94922 19.7925-6.19922 19.4576-6.44922 19.0461-6.64062 18.558-6.77344 18.0698-6.90625 17.5151-6.97266 16.8937-6.97266L15.4051-6.97266C15.3405-6.97266 15.278-6.98633 15.2175-7.01367 15.157-7.04102 15.1046-7.08594 15.0602-7.14844 15.0158-7.21094 14.9795-7.29297 14.9512-7.39453 14.923-7.49609 14.9089-7.62891 14.9089-7.79297 14.9089-7.94141 14.9206-8.06445 14.944-8.16211 14.9674-8.25977 15.0007-8.33789 15.0436-8.39648 15.0866-8.45508 15.1354-8.49805 15.1901-8.52539 15.2448-8.55273 15.3073-8.56641 15.3776-8.56641L16.7018-8.56641C17.2174-8.56641 17.6803-8.63281 18.0905-8.76562 18.5007-8.89844 18.8483-9.08984 19.1335-9.33984 19.4186-9.58984 19.6374-9.88867 19.7897-10.2363 19.9421-10.584 20.0182-10.9727 20.0182-11.4023 20.0182-11.7148 19.9674-12.0137 19.8659-12.2988 19.7643-12.584 19.612-12.832 19.4089-13.043 19.2057-13.2539 18.946-13.4199 18.6296-13.541 18.3132-13.6621 17.9479-13.7227 17.5339-13.7227 17.0807-13.7227 16.6647-13.6543 16.2858-13.5176 15.9069-13.3809 15.569-13.2344 15.2721-13.0781 14.9753-12.9219 14.7292-12.7754 14.5339-12.6387 14.3385-12.502 14.2018-12.4336 14.1237-12.4336 14.069-12.4336 14.0202-12.4434 13.9772-12.4629 13.9342-12.4824 13.8991-12.5215 13.8717-12.5801 13.8444-12.6387 13.8249-12.7207 13.8132-12.8262 13.8014-12.9316 13.7956-13.0703 13.7956-13.2422 13.7956-13.3594 13.7995-13.4629 13.8073-13.5527 13.8151-13.6426 13.8307-13.7207 13.8542-13.7871 13.8776-13.8535 13.9049-13.9141 13.9362-13.9688 13.9674-14.0234 14.0202-14.0879 14.0944-14.1621 14.1686-14.2363 14.319-14.3437 14.5456-14.4844 14.7721-14.625 15.0514-14.7637 15.3835-14.9004 15.7155-15.0371 16.0983-15.1523 16.5319-15.2461 16.9655-15.3398 17.4323-15.3867 17.9323-15.3867 18.6354-15.3867 19.2526-15.2969 19.7839-15.1172 20.3151-14.9375 20.7585-14.6836 21.1139-14.3555 21.4694-14.0273 21.735-13.6348 21.9108-13.1777 22.0866-12.7207 22.1745-12.2148 22.1745-11.6602 22.1745-11.1836 22.112-10.7402 21.987-10.3301 21.862-9.91992 21.6784-9.55664 21.4362-9.24023 21.194-8.92383 20.8971-8.6543 20.5456-8.43164 20.194-8.20898 19.7878-8.05469 19.3268-7.96875L19.3268-7.94531C19.8503-7.89062 20.3288-7.75977 20.7624-7.55273 21.196-7.3457 21.569-7.08594 21.8815-6.77344 22.194-6.46094 22.4382-6.0957 22.6139-5.67773 22.7897-5.25977 22.8776-4.8125 22.8776-4.33594Z" transform="translate(17.1937 32)"/></g></g><text font-family="Calibri,Calibri_MSFontService,sans-serif" font-weight="400" font-size="24" transform="translate(777.497 321)">23</text></g></svg>