<svg width="56" height="60" xmlns="http://www.w3.org/2000/svg" xmlns:xlink="http://www.w3.org/1999/xlink" overflow="hidden"><defs><filter id="fx0" x="-10%" y="-10%" width="120%" height="120%" filterUnits="userSpaceOnUse" primitiveUnits="userSpaceOnUse"><feComponentTransfer color-interpolation-filters="sRGB"><feFuncR type="discrete" tableValues="0 0"/><feFuncG type="discrete" tableValues="0 0"/><feFuncB type="discrete" tableValues="0 0"/><feFuncA type="linear" slope="0.4" intercept="0"/></feComponentTransfer><feGaussianBlur stdDeviation="0.572011 0.572011"/></filter><clipPath id="clip1"><rect x="762" y="117" width="56" height="60"/></clipPath><clipPath id="clip2"><rect x="17" y="16" width="13" height="17"/></clipPath><clipPath id="clip3"><rect x="0" y="0" width="47" height="56"/></clipPath></defs><g clip-path="url(#clip1)" transform="translate(-762 -117)"><path d="M762 127C762 122.03 766.03 118 771 118L808 118C812.97 118 817 122.03 817 127L817 163C817 167.97 812.97 172 808 172L771 172C766.03 172 762 167.97 762 163Z" fill="#8F4D76" fill-rule="evenodd"/><g clip-path="url(#clip2)" filter="url(#fx0)" transform="translate(767 121)"><g clip-path="url(#clip3)"><path d="M11.1797-3.89062C11.1797-3.23438 11.0625-2.65039 10.8281-2.13867 10.5938-1.62695 10.2559-1.19531 9.81445-0.84375 9.37305-0.492188 8.82812-0.226562 8.17969-0.046875 7.53125 0.132812 6.78906 0.222656 5.95312 0.222656 5.17188 0.222656 4.47266 0.140625 3.85547-0.0234375 3.23828-0.1875 2.71484-0.429688 2.28516-0.75 1.85547-1.07031 1.52734-1.46484 1.30078-1.93359 1.07422-2.40234 0.960937-2.9375 0.960938-3.53906 0.960937-4.01562 1.03906-4.45312 1.19531-4.85156 1.35156-5.25 1.57617-5.61719 1.86914-5.95312 2.16211-6.28906 2.52344-6.60352 2.95312-6.89648 3.38281-7.18945 3.86719-7.46875 4.40625-7.73438 3.9375-7.97656 3.52344-8.23242 3.16406-8.50195 2.80469-8.77148 2.5-9.06445 2.25-9.38086 2-9.69727 1.81055-10.0352 1.68164-10.3945 1.55273-10.7539 1.48828-11.1445 1.48828-11.5664 1.48828-12.0977 1.58398-12.5957 1.77539-13.0605 1.9668-13.5254 2.25586-13.9297 2.64258-14.2734 3.0293-14.6172 3.52148-14.8887 4.11914-15.0879 4.7168-15.2871 5.41406-15.3867 6.21094-15.3867 6.97656-15.3867 7.63867-15.2949 8.19727-15.1113 8.75586-14.9277 9.2168-14.6777 9.58008-14.3613 9.94336-14.0449 10.2109-13.6719 10.3828-13.2422 10.5547-12.8125 10.6406-12.3516 10.6406-11.8594 10.6406-11.4609 10.5762-11.0781 10.4473-10.7109 10.3184-10.3438 10.1289-9.99609 9.87891-9.66797 9.62891-9.33984 9.32227-9.0332 8.95898-8.74805 8.5957-8.46289 8.17969-8.19531 7.71094-7.94531 8.26562-7.67187 8.75977-7.39062 9.19336-7.10156 9.62695-6.8125 9.99023-6.50195 10.2832-6.16992 10.5762-5.83789 10.7988-5.48633 10.9512-5.11523 11.1035-4.74414 11.1797-4.33594 11.1797-3.89062ZM8.64844-11.6719C8.64844-12 8.5918-12.2969 8.47852-12.5625 8.36523-12.8281 8.19922-13.0547 7.98047-13.2422 7.76172-13.4297 7.49023-13.5723 7.16602-13.6699 6.8418-13.7676 6.47266-13.8164 6.05859-13.8164 5.21484-13.8164 4.57617-13.625 4.14258-13.2422 3.70898-12.8594 3.49219-12.3359 3.49219-11.6719 3.49219-11.3672 3.54492-11.084 3.65039-10.8223 3.75586-10.5605 3.91992-10.3125 4.14258-10.0781 4.36523-9.84375 4.64648-9.61523 4.98633-9.39258 5.32617-9.16992 5.73047-8.9375 6.19922-8.69531 6.98828-9.10156 7.59375-9.55078 8.01562-10.043 8.4375-10.5352 8.64844-11.0781 8.64844-11.6719ZM9.14062-3.67969C9.14062-4.03906 9.07422-4.36523 8.94141-4.6582 8.80859-4.95117 8.60742-5.22461 8.33789-5.47852 8.06836-5.73242 7.73242-5.97852 7.33008-6.2168 6.92773-6.45508 6.46094-6.70312 5.92969-6.96094 5.4375-6.71875 5.00586-6.47656 4.63477-6.23438 4.26367-5.99219 3.95898-5.74219 3.7207-5.48438 3.48242-5.22656 3.30273-4.95508 3.18164-4.66992 3.06055-4.38477 3-4.07031 3-3.72656 3-2.96875 3.25977-2.38281 3.7793-1.96875 4.29883-1.55469 5.07422-1.34766 6.10547-1.34766 7.10547-1.34766 7.86133-1.55664 8.37305-1.97461 8.88477-2.39258 9.14062-2.96094 9.14062-3.67969Z" transform="translate(17.277 32)"/></g></g><text font-family="Calibri,Calibri_MSFontService,sans-serif" font-weight="400" font-size="24" transform="translate(783.581 152)">8</text></g></svg>