<svg width="58" height="60" xmlns="http://www.w3.org/2000/svg" xmlns:xlink="http://www.w3.org/1999/xlink" overflow="hidden"><defs><filter id="fx0" x="-10%" y="-10%" width="120%" height="120%" filterUnits="userSpaceOnUse" primitiveUnits="userSpaceOnUse"><feComponentTransfer color-interpolation-filters="sRGB"><feFuncR type="discrete" tableValues="0 0"/><feFuncG type="discrete" tableValues="0 0"/><feFuncB type="discrete" tableValues="0 0"/><feFuncA type="linear" slope="0.4" intercept="0"/></feComponentTransfer><feGaussianBlur stdDeviation="0.572011 0.572011"/></filter><filter id="fx1" x="-10%" y="-10%" width="120%" height="120%" filterUnits="userSpaceOnUse" primitiveUnits="userSpaceOnUse"><feComponentTransfer color-interpolation-filters="sRGB"><feFuncR type="discrete" tableValues="0 0"/><feFuncG type="discrete" tableValues="0 0"/><feFuncB type="discrete" tableValues="0 0"/><feFuncA type="linear" slope="0.4" intercept="0"/></feComponentTransfer><feGaussianBlur stdDeviation="0.572011 0.572011"/></filter><clipPath id="clip2"><rect x="167" y="191" width="58" height="60"/></clipPath><clipPath id="clip3"><rect x="18" y="17" width="12" height="17"/></clipPath><clipPath id="clip4"><rect x="0" y="0" width="47" height="56"/></clipPath><clipPath id="clip5"><rect x="18" y="17" width="12" height="17"/></clipPath><clipPath id="clip6"><rect x="0" y="0" width="48" height="56"/></clipPath></defs><g clip-path="url(#clip2)" transform="translate(-167 -191)"><path d="M168 201C168 196.03 172.03 192 177 192L213 192C217.97 192 222 196.03 222 201L222 237C222 241.97 217.97 246 213 246L177 246C172.03 246 168 241.97 168 237Z" fill="#9EABB8" fill-rule="evenodd"/><g clip-path="url(#clip3)" filter="url(#fx0)" transform="translate(166 195)"><g clip-path="url(#clip4)"><path d="M10.8633-0.796875C10.8633-0.648438 10.8516-0.523438 10.8281-0.421875 10.8047-0.320312 10.7734-0.238281 10.7344-0.175781 10.6953-0.113281 10.6504-0.0683594 10.5996-0.0410156 10.5488-0.0136719 10.4961 0 10.4414 0L2.51953 0C2.46484 0 2.41406-0.0136719 2.36719-0.0410156 2.32031-0.0683594 2.27539-0.113281 2.23242-0.175781 2.18945-0.238281 2.15625-0.320312 2.13281-0.421875 2.10938-0.523438 2.09766-0.648438 2.09766-0.796875 2.09766-0.9375 2.10938-1.05859 2.13281-1.16016 2.15625-1.26172 2.18555-1.3457 2.2207-1.41211 2.25586-1.47852 2.29883-1.5293 2.34961-1.56445 2.40039-1.59961 2.45703-1.61719 2.51953-1.61719L5.68359-1.61719 5.68359-13.1484 2.75391-11.4023C2.60547-11.3242 2.48633-11.2773 2.39648-11.2617 2.30664-11.2461 2.23438-11.2637 2.17969-11.3145 2.125-11.3652 2.08789-11.4492 2.06836-11.5664 2.04883-11.6836 2.03906-11.832 2.03906-12.0117 2.03906-12.1445 2.04492-12.2578 2.05664-12.3516 2.06836-12.4453 2.08594-12.5234 2.10938-12.5859 2.13281-12.6484 2.16602-12.7031 2.20898-12.75 2.25195-12.7969 2.30859-12.8437 2.37891-12.8906L5.87109-15.1289C5.90234-15.1523 5.94141-15.1719 5.98828-15.1875 6.03516-15.2031 6.09375-15.2187 6.16406-15.2344 6.23437-15.25 6.31641-15.2598 6.41016-15.2637 6.50391-15.2676 6.62109-15.2695 6.76172-15.2695 6.94922-15.2695 7.10547-15.2617 7.23047-15.2461 7.35547-15.2305 7.45312-15.209 7.52344-15.1816 7.59375-15.1543 7.64062-15.1191 7.66406-15.0762 7.6875-15.0332 7.69922-14.9883 7.69922-14.9414L7.69922-1.61719 10.4414-1.61719C10.5039-1.61719 10.5625-1.59961 10.6172-1.56445 10.6719-1.5293 10.7168-1.47852 10.752-1.41211 10.7871-1.3457 10.8145-1.26172 10.834-1.16016 10.8535-1.05859 10.8633-0.9375 10.8633-0.796875Z" transform="translate(17.7206 33)"/></g></g><text font-family="Calibri,Calibri_MSFontService,sans-serif" font-weight="400" font-size="24" transform="translate(183.024 227)">1</text><g clip-path="url(#clip5)" filter="url(#fx1)" transform="translate(178 195)"><g clip-path="url(#clip6)"><path d="M10.8281-0.867188C10.8281-0.726562 10.8184-0.601562 10.7988-0.492188 10.7793-0.382812 10.752-0.291016 10.7168-0.216797 10.6816-0.142578 10.6348-0.0878906 10.5762-0.0527344 10.5176-0.0175781 10.4531 0 10.3828 0L2.00391 0C1.89453 0 1.79883-0.0136719 1.7168-0.0410156 1.63477-0.0683594 1.56445-0.113281 1.50586-0.175781 1.44727-0.238281 1.4043-0.328125 1.37695-0.445312 1.34961-0.5625 1.33594-0.707031 1.33594-0.878906 1.33594-1.03516 1.34198-1.17188 1.35406-1.28906 1.36615-1.40625 1.3923-1.50977 1.43253-1.59961 1.47275-1.68945 1.52307-1.7793 1.5835-1.86914 1.64392-1.95898 1.72241-2.05469 1.81897-2.15625L4.84991-5.27344C5.55035-5.99219 6.11191-6.63672 6.53458-7.20703 6.95724-7.77734 7.28329-8.29688 7.51273-8.76562 7.74216-9.23438 7.8931-9.66016 7.96555-10.043 8.03799-10.4258 8.07422-10.7852 8.07422-11.1211 8.07422-11.457 8.01779-11.7754 7.90494-12.0762 7.79208-12.377 7.62884-12.6406 7.41522-12.8672 7.2016-13.0937 6.93356-13.2734 6.61111-13.4062 6.28867-13.5391 5.91785-13.6055 5.49866-13.6055 5.00696-13.6055 4.56561-13.5391 4.17462-13.4062 3.78363-13.2734 3.44101-13.1289 3.14676-12.9727 2.85251-12.8164 2.60666-12.6719 2.40921-12.5391 2.21176-12.4062 2.06464-12.3398 1.96783-12.3398 1.91144-12.3398 1.86105-12.3555 1.81668-12.3867 1.77231-12.418 1.73602-12.4687 1.70782-12.5391 1.67963-12.6094 1.65747-12.7031 1.64136-12.8203 1.62524-12.9375 1.61719-13.0781 1.61719-13.2422 1.61719-13.3594 1.62109-13.4609 1.62891-13.5469 1.63672-13.6328 1.65039-13.707 1.66992-13.7695 1.68945-13.832 1.71484-13.8906 1.74609-13.9453 1.77734-14 1.83984-14.0684 1.93359-14.1504 2.02734-14.2324 2.18945-14.3437 2.41992-14.4844 2.65039-14.625 2.93945-14.7637 3.28711-14.9004 3.63477-15.0371 4.01758-15.1523 4.43555-15.2461 4.85352-15.3398 5.29297-15.3867 5.75391-15.3867 6.48828-15.3867 7.13086-15.2832 7.68164-15.0762 8.23242-14.8691 8.68945-14.5859 9.05273-14.2266 9.41602-13.8672 9.6875-13.4492 9.86719-12.9727 10.0469-12.4961 10.1367-11.9883 10.1367-11.4492 10.1367-10.9648 10.0938-10.4824 10.0078-10.002 9.92188-9.52148 9.74023-9.00195 9.46289-8.44336 9.18555-7.88477 8.78516-7.26367 8.26172-6.58008 7.73828-5.89648 7.04297-5.10938 6.17578-4.21875L3.77344-1.71094 10.3711-1.71094C10.4336-1.71094 10.4941-1.69336 10.5527-1.6582 10.6113-1.62305 10.6621-1.57031 10.7051-1.5 10.748-1.42969 10.7793-1.3418 10.7988-1.23633 10.8184-1.13086 10.8281-1.00781 10.8281-0.867188Z" transform="translate(17.8873 33)"/></g></g><text font-family="Calibri,Calibri_MSFontService,sans-serif" font-weight="400" font-size="24" transform="translate(195.191 227)">2</text></g></svg>