<svg width="56" height="60" xmlns="http://www.w3.org/2000/svg" xmlns:xlink="http://www.w3.org/1999/xlink" overflow="hidden"><defs><filter id="fx0" x="-10%" y="-10%" width="120%" height="120%" filterUnits="userSpaceOnUse" primitiveUnits="userSpaceOnUse"><feComponentTransfer color-interpolation-filters="sRGB"><feFuncR type="discrete" tableValues="0 0"/><feFuncG type="discrete" tableValues="0 0"/><feFuncB type="discrete" tableValues="0 0"/><feFuncA type="linear" slope="0.4" intercept="0"/></feComponentTransfer><feGaussianBlur stdDeviation="0.572011 0.572011"/></filter><clipPath id="clip1"><rect x="392" y="117" width="56" height="60"/></clipPath><clipPath id="clip2"><rect x="18" y="16" width="12" height="17"/></clipPath><clipPath id="clip3"><rect x="0" y="0" width="47" height="56"/></clipPath></defs><g clip-path="url(#clip1)" transform="translate(-392 -117)"><path d="M393 127C393 122.03 397.03 118 402 118L438 118C442.97 118 447 122.03 447 127L447 163C447 167.97 442.97 172 438 172L402 172C397.03 172 393 167.97 393 163Z" fill="#F7DC6F" fill-rule="evenodd"/><g clip-path="url(#clip2)" filter="url(#fx0)" transform="translate(397 121)"><g clip-path="url(#clip3)"><path d="M10.7109-4.33594C10.7109-3.64062 10.5898-3.01367 10.3477-2.45508 10.1055-1.89648 9.75781-1.41797 9.30469-1.01953 8.85156-0.621094 8.29297-0.314453 7.62891-0.0996094 6.96484 0.115234 6.21484 0.222656 5.37891 0.222656 4.87109 0.222656 4.39648 0.181641 3.95508 0.0996094 3.51367 0.0175781 3.12109-0.0800781 2.77734-0.193359 2.43359-0.306641 2.14844-0.423828 1.92188-0.544922 1.69531-0.666016 1.55273-0.753906 1.49414-0.808594 1.43555-0.863281 1.39062-0.917969 1.35938-0.972656 1.32812-1.02734 1.30078-1.09375 1.27734-1.17188 1.25391-1.25 1.23633-1.3457 1.22461-1.45898 1.21289-1.57227 1.20703-1.71094 1.20703-1.875 1.20703-2.15625 1.23508-2.35156 1.29117-2.46094 1.34726-2.57031 1.42743-2.625 1.53168-2.625 1.60382-2.625 1.74606-2.5625 1.9584-2.4375 2.17075-2.3125 2.44324-2.17773 2.77588-2.0332 3.10852-1.88867 3.49722-1.75391 3.94199-1.62891 4.38675-1.50391 4.88165-1.44141 5.4267-1.44141 5.95563-1.44141 6.42044-1.50781 6.82114-1.64062 7.22183-1.77344 7.55844-1.96094 7.83096-2.20312 8.10349-2.44531 8.30786-2.73242 8.44409-3.06445 8.58032-3.39648 8.64844-3.75781 8.64844-4.14844 8.64844-4.57812 8.56171-4.96484 8.38824-5.30859 8.21478-5.65234 7.96063-5.94922 7.62579-6.19922 7.29095-6.44922 6.87946-6.64062 6.3913-6.77344 5.90314-6.90625 5.34839-6.97266 4.72705-6.97266L3.2384-6.97266C3.17383-6.97266 3.1113-6.98633 3.05081-7.01367 2.99033-7.04102 2.9379-7.08594 2.89352-7.14844 2.84915-7.21094 2.81284-7.29297 2.78458-7.39453 2.75632-7.49609 2.74219-7.62891 2.74219-7.79297 2.74219-7.94141 2.75391-8.06445 2.77734-8.16211 2.80078-8.25977 2.83398-8.33789 2.87695-8.39648 2.91992-8.45508 2.96875-8.49805 3.02344-8.52539 3.07812-8.55273 3.14062-8.56641 3.21094-8.56641L4.53516-8.56641C5.05078-8.56641 5.51367-8.63281 5.92383-8.76562 6.33398-8.89844 6.68164-9.08984 6.9668-9.33984 7.25195-9.58984 7.4707-9.88867 7.62305-10.2363 7.77539-10.584 7.85156-10.9727 7.85156-11.4023 7.85156-11.7148 7.80078-12.0137 7.69922-12.2988 7.59766-12.584 7.44531-12.832 7.24219-13.043 7.03906-13.2539 6.7793-13.4199 6.46289-13.541 6.14648-13.6621 5.78125-13.7227 5.36719-13.7227 4.91406-13.7227 4.49805-13.6543 4.11914-13.5176 3.74023-13.3809 3.40234-13.2344 3.10547-13.0781 2.80859-12.9219 2.5625-12.7754 2.36719-12.6387 2.17188-12.502 2.03516-12.4336 1.95703-12.4336 1.90234-12.4336 1.85352-12.4434 1.81055-12.4629 1.76758-12.4824 1.73242-12.5215 1.70508-12.5801 1.67773-12.6387 1.6582-12.7207 1.64648-12.8262 1.63477-12.9316 1.62891-13.0703 1.62891-13.2422 1.62891-13.3594 1.63281-13.4629 1.64062-13.5527 1.64844-13.6426 1.66406-13.7207 1.6875-13.7871 1.71094-13.8535 1.73828-13.9141 1.76953-13.9688 1.80078-14.0234 1.85352-14.0879 1.92773-14.1621 2.00195-14.2363 2.15234-14.3437 2.37891-14.4844 2.60547-14.625 2.88477-14.7637 3.2168-14.9004 3.54883-15.0371 3.93164-15.1523 4.36523-15.2461 4.79883-15.3398 5.26562-15.3867 5.76562-15.3867 6.46875-15.3867 7.08594-15.2969 7.61719-15.1172 8.14844-14.9375 8.5918-14.6836 8.94727-14.3555 9.30273-14.0273 9.56836-13.6348 9.74414-13.1777 9.91992-12.7207 10.0078-12.2148 10.0078-11.6602 10.0078-11.1836 9.94531-10.7402 9.82031-10.3301 9.69531-9.91992 9.51172-9.55664 9.26953-9.24023 9.02734-8.92383 8.73047-8.6543 8.37891-8.43164 8.02734-8.20898 7.62109-8.05469 7.16016-7.96875L7.16016-7.94531C7.68359-7.89062 8.16211-7.75977 8.5957-7.55273 9.0293-7.3457 9.40234-7.08594 9.71484-6.77344 10.0273-6.46094 10.2715-6.0957 10.4473-5.67773 10.623-5.25977 10.7109-4.8125 10.7109-4.33594Z" transform="translate(17.6405 32)"/></g></g><text font-family="Calibri,Calibri_MSFontService,sans-serif" font-weight="400" font-size="24" transform="translate(413.944 152)">3</text></g></svg>