<svg width="56" height="60" xmlns="http://www.w3.org/2000/svg" xmlns:xlink="http://www.w3.org/1999/xlink" overflow="hidden"><defs><filter id="fx0" x="-10%" y="-10%" width="120%" height="120%" filterUnits="userSpaceOnUse" primitiveUnits="userSpaceOnUse"><feComponentTransfer color-interpolation-filters="sRGB"><feFuncR type="discrete" tableValues="0 0"/><feFuncG type="discrete" tableValues="0 0"/><feFuncB type="discrete" tableValues="0 0"/><feFuncA type="linear" slope="0.4" intercept="0"/></feComponentTransfer><feGaussianBlur stdDeviation="0.572011 0.572011"/></filter><clipPath id="clip1"><rect x="837" y="117" width="56" height="60"/></clipPath><clipPath id="clip2"><rect x="17" y="16" width="13" height="17"/></clipPath><clipPath id="clip3"><rect x="0" y="0" width="47" height="56"/></clipPath></defs><g clip-path="url(#clip1)" transform="translate(-837 -117)"><path d="M838 127C838 122.03 842.03 118 847 118L883 118C887.97 118 892 122.03 892 127L892 163C892 167.97 887.97 172 883 172L847 172C842.03 172 838 167.97 838 163Z" fill="#B7C79F" fill-rule="evenodd"/><g clip-path="url(#clip2)" filter="url(#fx0)" transform="translate(842 121)"><g clip-path="url(#clip3)"><path d="M10.9453-8.17969C10.9453-7.52344 10.9062-6.85937 10.8281-6.1875 10.75-5.51562 10.6172-4.86914 10.4297-4.24805 10.2422-3.62695 9.99023-3.04492 9.67383-2.50195 9.35742-1.95898 8.95898-1.48437 8.47852-1.07812 7.99805-0.671875 7.42773-0.353516 6.76758-0.123047 6.10742 0.107422 5.33984 0.222656 4.46484 0.222656 4.12891 0.222656 3.80273 0.201172 3.48633 0.158203 3.16992 0.115234 2.88477 0.0625 2.63086 0 2.37695-0.0625 2.16406-0.128906 1.99219-0.199219 1.82031-0.269531 1.69531-0.339844 1.61719-0.410156 1.53906-0.480469 1.48242-0.576172 1.44727-0.697266 1.41211-0.818359 1.39453-0.980469 1.39453-1.18359 1.39453-1.35547 1.40039-1.49219 1.41211-1.59375 1.42383-1.69531 1.44141-1.77344 1.46484-1.82812 1.48828-1.88281 1.52148-1.91992 1.56445-1.93945 1.60742-1.95898 1.66016-1.96875 1.72266-1.96875 1.80859-1.96875 1.92969-1.93945 2.08594-1.88086 2.24219-1.82227 2.43945-1.75781 2.67773-1.6875 2.91602-1.61719 3.19531-1.55273 3.51562-1.49414 3.83594-1.43555 4.19531-1.40625 4.59375-1.40625 5.35156-1.40625 6.00195-1.55273 6.54492-1.8457 7.08789-2.13867 7.53125-2.53125 7.875-3.02344 8.21875-3.51562 8.47656-4.08594 8.64844-4.73438 8.82031-5.38281 8.91406-6.06641 8.92969-6.78516 8.51562-6.54297 8.01953-6.32812 7.44141-6.14062 6.86328-5.95312 6.19922-5.85938 5.44922-5.85938 4.60547-5.85938 3.89648-5.97461 3.32227-6.20508 2.74805-6.43555 2.28711-6.75 1.93945-7.14844 1.5918-7.54687 1.3418-8.01953 1.18945-8.56641 1.03711-9.11328 0.960937-9.71094 0.960938-10.3594 0.960937-11.0312 1.05859-11.6699 1.25391-12.2754 1.44922-12.8809 1.75391-13.4141 2.16797-13.875 2.58203-14.3359 3.10938-14.7031 3.75-14.9766 4.39062-15.25 5.15625-15.3867 6.04688-15.3867 6.67969-15.3867 7.24023-15.3066 7.72852-15.1465 8.2168-14.9863 8.64062-14.7559 9-14.4551 9.35938-14.1543 9.66406-13.791 9.91406-13.3652 10.1641-12.9395 10.3652-12.457 10.5176-11.918 10.6699-11.3789 10.7793-10.7949 10.8457-10.166 10.9121-9.53711 10.9453-8.875 10.9453-8.17969ZM8.89453-8.40234C8.89453-9.40234 8.82812-10.2441 8.69531-10.9277 8.5625-11.6113 8.36719-12.1641 8.10938-12.5859 7.85156-13.0078 7.53516-13.3125 7.16016-13.5 6.78516-13.6875 6.35156-13.7812 5.85938-13.7812 5.35156-13.7812 4.91797-13.6895 4.55859-13.5059 4.19922-13.3223 3.9043-13.0762 3.67383-12.7676 3.44336-12.459 3.27344-12.1094 3.16406-11.7188 3.05469-11.3281 3-10.9258 3-10.5117 3-10.0508 3.04883-9.62891 3.14648-9.24609 3.24414-8.86328 3.40234-8.53906 3.62109-8.27344 3.83984-8.00781 4.125-7.80273 4.47656-7.6582 4.82812-7.51367 5.26172-7.44141 5.77734-7.44141 6.36328-7.44141 6.92969-7.5293 7.47656-7.70508 8.02344-7.88086 8.49609-8.11328 8.89453-8.40234Z" transform="translate(17.4953 32)"/></g></g><text font-family="Calibri,Calibri_MSFontService,sans-serif" font-weight="400" font-size="24" transform="translate(858.799 152)">9</text></g></svg>