<svg width="58" height="60" xmlns="http://www.w3.org/2000/svg" xmlns:xlink="http://www.w3.org/1999/xlink" overflow="hidden"><defs><filter id="fx0" x="-10%" y="-10%" width="120%" height="120%" filterUnits="userSpaceOnUse" primitiveUnits="userSpaceOnUse"><feComponentTransfer color-interpolation-filters="sRGB"><feFuncR type="discrete" tableValues="0 0"/><feFuncG type="discrete" tableValues="0 0"/><feFuncB type="discrete" tableValues="0 0"/><feFuncA type="linear" slope="0.4" intercept="0"/></feComponentTransfer><feGaussianBlur stdDeviation="0.572011 0.572011"/></filter><filter id="fx1" x="-10%" y="-10%" width="120%" height="120%" filterUnits="userSpaceOnUse" primitiveUnits="userSpaceOnUse"><feComponentTransfer color-interpolation-filters="sRGB"><feFuncR type="discrete" tableValues="0 0"/><feFuncG type="discrete" tableValues="0 0"/><feFuncB type="discrete" tableValues="0 0"/><feFuncA type="linear" slope="0.4" intercept="0"/></feComponentTransfer><feGaussianBlur stdDeviation="0.572011 0.572011"/></filter><clipPath id="clip2"><rect x="391" y="360" width="58" height="60"/></clipPath><clipPath id="clip3"><rect x="18" y="16" width="12" height="17"/></clipPath><clipPath id="clip4"><rect x="0" y="0" width="47" height="56"/></clipPath><clipPath id="clip5"><rect x="17" y="16" width="14" height="17"/></clipPath><clipPath id="clip6"><rect x="0" y="0" width="48" height="56"/></clipPath></defs><g clip-path="url(#clip2)" transform="translate(-391 -360)"><path d="M392 370C392 365.03 396.03 361 401 361L437 361C441.97 361 446 365.03 446 370L446 406C446 410.97 441.97 415 437 415L401 415C396.03 415 392 410.97 392 406Z" fill="#08E5EA" fill-rule="evenodd"/><g clip-path="url(#clip3)" filter="url(#fx0)" transform="translate(390 364)"><g clip-path="url(#clip4)"><path d="M10.7109-4.33594C10.7109-3.64062 10.5898-3.01367 10.3477-2.45508 10.1055-1.89648 9.75781-1.41797 9.30469-1.01953 8.85156-0.621094 8.29297-0.314453 7.62891-0.0996094 6.96484 0.115234 6.21484 0.222656 5.37891 0.222656 4.87109 0.222656 4.39648 0.181641 3.95508 0.0996094 3.51367 0.0175781 3.12109-0.0800781 2.77734-0.193359 2.43359-0.306641 2.14844-0.423828 1.92188-0.544922 1.69531-0.666016 1.55273-0.753906 1.49414-0.808594 1.43555-0.863281 1.39062-0.917969 1.35938-0.972656 1.32812-1.02734 1.30078-1.09375 1.27734-1.17188 1.25391-1.25 1.23633-1.3457 1.22461-1.45898 1.21289-1.57227 1.20703-1.71094 1.20703-1.875 1.20703-2.15625 1.23508-2.35156 1.29117-2.46094 1.34726-2.57031 1.42743-2.625 1.53168-2.625 1.60382-2.625 1.74606-2.5625 1.9584-2.4375 2.17075-2.3125 2.44324-2.17773 2.77588-2.0332 3.10852-1.88867 3.49722-1.75391 3.94199-1.62891 4.38675-1.50391 4.88165-1.44141 5.4267-1.44141 5.95563-1.44141 6.42044-1.50781 6.82114-1.64062 7.22183-1.77344 7.55844-1.96094 7.83096-2.20312 8.10349-2.44531 8.30786-2.73242 8.44409-3.06445 8.58032-3.39648 8.64844-3.75781 8.64844-4.14844 8.64844-4.57812 8.56171-4.96484 8.38824-5.30859 8.21478-5.65234 7.96063-5.94922 7.62579-6.19922 7.29095-6.44922 6.87946-6.64062 6.3913-6.77344 5.90314-6.90625 5.34839-6.97266 4.72705-6.97266L3.2384-6.97266C3.17383-6.97266 3.1113-6.98633 3.05081-7.01367 2.99033-7.04102 2.9379-7.08594 2.89352-7.14844 2.84915-7.21094 2.81284-7.29297 2.78458-7.39453 2.75632-7.49609 2.74219-7.62891 2.74219-7.79297 2.74219-7.94141 2.75391-8.06445 2.77734-8.16211 2.80078-8.25977 2.83398-8.33789 2.87695-8.39648 2.91992-8.45508 2.96875-8.49805 3.02344-8.52539 3.07812-8.55273 3.14062-8.56641 3.21094-8.56641L4.53516-8.56641C5.05078-8.56641 5.51367-8.63281 5.92383-8.76562 6.33398-8.89844 6.68164-9.08984 6.9668-9.33984 7.25195-9.58984 7.4707-9.88867 7.62305-10.2363 7.77539-10.584 7.85156-10.9727 7.85156-11.4023 7.85156-11.7148 7.80078-12.0137 7.69922-12.2988 7.59766-12.584 7.44531-12.832 7.24219-13.043 7.03906-13.2539 6.7793-13.4199 6.46289-13.541 6.14648-13.6621 5.78125-13.7227 5.36719-13.7227 4.91406-13.7227 4.49805-13.6543 4.11914-13.5176 3.74023-13.3809 3.40234-13.2344 3.10547-13.0781 2.80859-12.9219 2.5625-12.7754 2.36719-12.6387 2.17188-12.502 2.03516-12.4336 1.95703-12.4336 1.90234-12.4336 1.85352-12.4434 1.81055-12.4629 1.76758-12.4824 1.73242-12.5215 1.70508-12.5801 1.67773-12.6387 1.6582-12.7207 1.64648-12.8262 1.63477-12.9316 1.62891-13.0703 1.62891-13.2422 1.62891-13.3594 1.63281-13.4629 1.64062-13.5527 1.64844-13.6426 1.66406-13.7207 1.6875-13.7871 1.71094-13.8535 1.73828-13.9141 1.76953-13.9688 1.80078-14.0234 1.85352-14.0879 1.92773-14.1621 2.00195-14.2363 2.15234-14.3437 2.37891-14.4844 2.60547-14.625 2.88477-14.7637 3.2168-14.9004 3.54883-15.0371 3.93164-15.1523 4.36523-15.2461 4.79883-15.3398 5.26562-15.3867 5.76562-15.3867 6.46875-15.3867 7.08594-15.2969 7.61719-15.1172 8.14844-14.9375 8.5918-14.6836 8.94727-14.3555 9.30273-14.0273 9.56836-13.6348 9.74414-13.1777 9.91992-12.7207 10.0078-12.2148 10.0078-11.6602 10.0078-11.1836 9.94531-10.7402 9.82031-10.3301 9.69531-9.91992 9.51172-9.55664 9.26953-9.24023 9.02734-8.92383 8.73047-8.6543 8.37891-8.43164 8.02734-8.20898 7.62109-8.05469 7.16016-7.96875L7.16016-7.94531C7.68359-7.89062 8.16211-7.75977 8.5957-7.55273 9.0293-7.3457 9.40234-7.08594 9.71484-6.77344 10.0273-6.46094 10.2715-6.0957 10.4473-5.67773 10.623-5.25977 10.7109-4.8125 10.7109-4.33594Z" transform="translate(17.7389 32)"/></g></g><text font-family="Calibri,Calibri_MSFontService,sans-serif" font-weight="400" font-size="24" transform="translate(407.042 396)">3</text><g clip-path="url(#clip5)" filter="url(#fx1)" transform="translate(402 364)"><g clip-path="url(#clip6)"><path d="M11.332-7.61719C11.332-6.45312 11.2402-5.39062 11.0566-4.42969 10.873-3.46875 10.5684-2.64258 10.1426-1.95117 9.7168-1.25977 9.16016-0.724609 8.47266-0.345703 7.78516 0.0332031 6.9375 0.222656 5.92969 0.222656 4.97656 0.222656 4.17383 0.0527344 3.52148-0.287109 2.86914-0.626953 2.34375-1.12695 1.94531-1.78711 1.54688-2.44727 1.26367-3.25977 1.0957-4.22461 0.927734-5.18945 0.84375-6.29688 0.84375-7.54688 0.84375-8.70312 0.9375-9.76367 1.125-10.7285 1.3125-11.6934 1.61719-12.5215 2.03906-13.2129 2.46094-13.9043 3.01562-14.4395 3.70312-14.8184 4.39062-15.1973 5.23438-15.3867 6.23438-15.3867 7.19531-15.3867 8.00195-15.2168 8.6543-14.877 9.30664-14.5371 9.83203-14.0371 10.2305-13.377 10.6289-12.7168 10.9121-11.9043 11.0801-10.9395 11.248-9.97461 11.332-8.86719 11.332-7.61719ZM9.26953-7.47656C9.26953-8.23438 9.24219-8.91406 9.1875-9.51562 9.13281-10.1172 9.05273-10.6484 8.94727-11.1094 8.8418-11.5703 8.70508-11.9668 8.53711-12.2988 8.36914-12.6309 8.16797-12.9043 7.93359-13.1191 7.69922-13.334 7.43164-13.4902 7.13086-13.5879 6.83008-13.6855 6.49219-13.7344 6.11719-13.7344 5.45312-13.7344 4.91406-13.5781 4.5-13.2656 4.08594-12.9531 3.75977-12.5234 3.52148-11.9766 3.2832-11.4297 3.12109-10.7891 3.03516-10.0547 2.94922-9.32031 2.90625-8.53125 2.90625-7.6875 2.90625-6.55469 2.96484-5.5918 3.08203-4.79883 3.19922-4.00586 3.38477-3.35937 3.63867-2.85938 3.89258-2.35938 4.2168-1.99609 4.61133-1.76953 5.00586-1.54297 5.48438-1.42969 6.04688-1.42969 6.48437-1.42969 6.86914-1.5 7.20117-1.64062 7.5332-1.78125 7.81836-1.98242 8.05664-2.24414 8.29492-2.50586 8.49219-2.82031 8.64844-3.1875 8.80469-3.55469 8.92969-3.96094 9.02344-4.40625 9.11719-4.85156 9.18164-5.33398 9.2168-5.85352 9.25195-6.37305 9.26953-6.91406 9.26953-7.47656Z" transform="translate(17.9056 32)"/></g></g><text font-family="Calibri,Calibri_MSFontService,sans-serif" font-weight="400" font-size="24" transform="translate(419.209 396)">0</text></g></svg>