<svg width="57" height="60" xmlns="http://www.w3.org/2000/svg" xmlns:xlink="http://www.w3.org/1999/xlink" overflow="hidden"><defs><filter id="fx0" x="-10%" y="-10%" width="120%" height="120%" filterUnits="userSpaceOnUse" primitiveUnits="userSpaceOnUse"><feComponentTransfer color-interpolation-filters="sRGB"><feFuncR type="discrete" tableValues="0 0"/><feFuncG type="discrete" tableValues="0 0"/><feFuncB type="discrete" tableValues="0 0"/><feFuncA type="linear" slope="0.4" intercept="0"/></feComponentTransfer><feGaussianBlur stdDeviation="0.572011 0.572011"/></filter><filter id="fx1" x="-10%" y="-10%" width="120%" height="120%" filterUnits="userSpaceOnUse" primitiveUnits="userSpaceOnUse"><feComponentTransfer color-interpolation-filters="sRGB"><feFuncR type="discrete" tableValues="0 0"/><feFuncG type="discrete" tableValues="0 0"/><feFuncB type="discrete" tableValues="0 0"/><feFuncA type="linear" slope="0.4" intercept="0"/></feComponentTransfer><feGaussianBlur stdDeviation="0.572011 0.572011"/></filter><clipPath id="clip2"><rect x="317" y="191" width="57" height="60"/></clipPath><clipPath id="clip3"><rect x="18" y="17" width="11" height="17"/></clipPath><clipPath id="clip4"><rect x="0" y="0" width="47" height="56"/></clipPath><clipPath id="clip5"><rect x="17" y="17" width="13" height="17"/></clipPath><clipPath id="clip6"><rect x="0" y="0" width="47" height="56"/></clipPath></defs><g clip-path="url(#clip2)" transform="translate(-317 -191)"><path d="M318 201C318 196.03 322.03 192 327 192L363 192C367.97 192 372 196.03 372 201L372 237C372 241.97 367.97 246 363 246L327 246C322.03 246 318 241.97 318 237Z" fill="#54C7D0" fill-rule="evenodd"/><g clip-path="url(#clip3)" filter="url(#fx0)" transform="translate(316 195)"><g clip-path="url(#clip4)"><path d="M10.8633-0.796875C10.8633-0.648438 10.8516-0.523438 10.8281-0.421875 10.8047-0.320312 10.7734-0.238281 10.7344-0.175781 10.6953-0.113281 10.6504-0.0683594 10.5996-0.0410156 10.5488-0.0136719 10.4961 0 10.4414 0L2.51953 0C2.46484 0 2.41406-0.0136719 2.36719-0.0410156 2.32031-0.0683594 2.27539-0.113281 2.23242-0.175781 2.18945-0.238281 2.15625-0.320312 2.13281-0.421875 2.10938-0.523438 2.09766-0.648438 2.09766-0.796875 2.09766-0.9375 2.10938-1.05859 2.13281-1.16016 2.15625-1.26172 2.18555-1.3457 2.2207-1.41211 2.25586-1.47852 2.29883-1.5293 2.34961-1.56445 2.40039-1.59961 2.45703-1.61719 2.51953-1.61719L5.68359-1.61719 5.68359-13.1484 2.75391-11.4023C2.60547-11.3242 2.48633-11.2773 2.39648-11.2617 2.30664-11.2461 2.23438-11.2637 2.17969-11.3145 2.125-11.3652 2.08789-11.4492 2.06836-11.5664 2.04883-11.6836 2.03906-11.832 2.03906-12.0117 2.03906-12.1445 2.04492-12.2578 2.05664-12.3516 2.06836-12.4453 2.08594-12.5234 2.10938-12.5859 2.13281-12.6484 2.16602-12.7031 2.20898-12.75 2.25195-12.7969 2.30859-12.8437 2.37891-12.8906L5.87109-15.1289C5.90234-15.1523 5.94141-15.1719 5.98828-15.1875 6.03516-15.2031 6.09375-15.2187 6.16406-15.2344 6.23437-15.25 6.31641-15.2598 6.41016-15.2637 6.50391-15.2676 6.62109-15.2695 6.76172-15.2695 6.94922-15.2695 7.10547-15.2617 7.23047-15.2461 7.35547-15.2305 7.45312-15.209 7.52344-15.1816 7.59375-15.1543 7.64062-15.1191 7.66406-15.0762 7.6875-15.0332 7.69922-14.9883 7.69922-14.9414L7.69922-1.61719 10.4414-1.61719C10.5039-1.61719 10.5625-1.59961 10.6172-1.56445 10.6719-1.5293 10.7168-1.47852 10.752-1.41211 10.7871-1.3457 10.8145-1.26172 10.834-1.16016 10.8535-1.05859 10.8633-0.9375 10.8633-0.796875Z" transform="translate(17.3389 33)"/></g></g><text font-family="Calibri,Calibri_MSFontService,sans-serif" font-weight="400" font-size="24" transform="translate(332.642 227)">1</text><g clip-path="url(#clip5)" filter="url(#fx1)" transform="translate(328 195)"><g clip-path="url(#clip6)"><path d="M11.4727-4.3125C11.4727-4.05469 11.4336-3.85156 11.3555-3.70312 11.2773-3.55469 11.168-3.48047 11.0273-3.48047L9.31641-3.48047 9.31641-0.292969C9.31641-0.230469 9.30032-0.177734 9.26816-0.134766 9.23599-0.0917969 9.17966-0.0546875 9.09915-0.0234375 9.01865 0.0078125 8.91403 0.03125 8.78531 0.046875 8.65659 0.0625 8.49164 0.0703125 8.29047 0.0703125 8.09735 0.0703125 7.93643 0.0625 7.80771 0.046875 7.67899 0.03125 7.57639 0.0078125 7.49991-0.0234375 7.42343-0.0546875 7.37112-0.0917969 7.34299-0.134766 7.31485-0.177734 7.30078-0.230469 7.30078-0.292969L7.30078-3.48047 1.09698-3.48047C1.00397-3.48047 0.926483-3.49219 0.864532-3.51562 0.802582-3.53906 0.746429-3.58203 0.696075-3.64453 0.645721-3.70703 0.61087-3.79687 0.591522-3.91406 0.572174-4.03125 0.5625-4.18359 0.5625-4.37109 0.5625-4.51953 0.566376-4.65234 0.574127-4.76953 0.581879-4.88672 0.597351-4.99414 0.620544-5.0918 0.643738-5.18945 0.674652-5.2832 0.713287-5.37305 0.751923-5.46289 0.79834-5.55859 0.852539-5.66016L6.25781-14.8711C6.29761-14.9336 6.35535-14.9883 6.43103-15.0352 6.50671-15.082 6.60431-15.1211 6.72382-15.1523 6.84332-15.1836 6.99069-15.2051 7.16592-15.2168 7.34116-15.2285 7.54822-15.2344 7.78711-15.2344 8.04993-15.2344 8.27893-15.2246 8.47412-15.2051 8.66931-15.1855 8.82663-15.1602 8.94608-15.1289 9.06552-15.0977 9.1571-15.0566 9.22083-15.0059 9.28455-14.9551 9.31641-14.8945 9.31641-14.8242L9.31641-5.14453 11.0273-5.14453C11.1602-5.14453 11.2676-5.07617 11.3496-4.93945 11.4316-4.80273 11.4727-4.59375 11.4727-4.3125ZM7.30078-13.4648 7.27771-13.4648 2.40234-5.14453 7.30078-5.14453Z" transform="translate(17.5056 33)"/></g></g><text font-family="Calibri,Calibri_MSFontService,sans-serif" font-weight="400" font-size="24" transform="translate(344.809 227)">4</text></g></svg>