<svg width="57" height="59" xmlns="http://www.w3.org/2000/svg" xmlns:xlink="http://www.w3.org/1999/xlink" overflow="hidden"><defs><filter id="fx0" x="-10%" y="-10%" width="120%" height="120%" filterUnits="userSpaceOnUse" primitiveUnits="userSpaceOnUse"><feComponentTransfer color-interpolation-filters="sRGB"><feFuncR type="discrete" tableValues="0 0"/><feFuncG type="discrete" tableValues="0 0"/><feFuncB type="discrete" tableValues="0 0"/><feFuncA type="linear" slope="0.4" intercept="0"/></feComponentTransfer><feGaussianBlur stdDeviation="0.572011 0.572011"/></filter><filter id="fx1" x="-10%" y="-10%" width="120%" height="120%" filterUnits="userSpaceOnUse" primitiveUnits="userSpaceOnUse"><feComponentTransfer color-interpolation-filters="sRGB"><feFuncR type="discrete" tableValues="0 0"/><feFuncG type="discrete" tableValues="0 0"/><feFuncB type="discrete" tableValues="0 0"/><feFuncA type="linear" slope="0.4" intercept="0"/></feComponentTransfer><feGaussianBlur stdDeviation="0.572011 0.572011"/></filter><clipPath id="clip2"><rect x="317" y="286" width="57" height="59"/></clipPath><clipPath id="clip3"><rect x="18" y="16" width="11" height="17"/></clipPath><clipPath id="clip4"><rect x="0" y="0" width="47" height="55"/></clipPath><clipPath id="clip5"><rect x="17" y="16" width="13" height="17"/></clipPath><clipPath id="clip6"><rect x="0" y="0" width="47" height="55"/></clipPath></defs><g clip-path="url(#clip2)" transform="translate(-317 -286)"><path d="M318 295C318 290.03 322.03 286 327 286L363 286C367.97 286 372 290.03 372 295L372 332C372 336.97 367.97 341 363 341L327 341C322.03 341 318 336.97 318 332Z" fill="#5D6D7E" fill-rule="evenodd"/><g clip-path="url(#clip3)" filter="url(#fx0)" transform="translate(316 290)"><g clip-path="url(#clip4)"><path d="M10.8633-0.796875C10.8633-0.648438 10.8516-0.523438 10.8281-0.421875 10.8047-0.320312 10.7734-0.238281 10.7344-0.175781 10.6953-0.113281 10.6504-0.0683594 10.5996-0.0410156 10.5488-0.0136719 10.4961 0 10.4414 0L2.51953 0C2.46484 0 2.41406-0.0136719 2.36719-0.0410156 2.32031-0.0683594 2.27539-0.113281 2.23242-0.175781 2.18945-0.238281 2.15625-0.320312 2.13281-0.421875 2.10938-0.523438 2.09766-0.648438 2.09766-0.796875 2.09766-0.9375 2.10938-1.05859 2.13281-1.16016 2.15625-1.26172 2.18555-1.3457 2.2207-1.41211 2.25586-1.47852 2.29883-1.5293 2.34961-1.56445 2.40039-1.59961 2.45703-1.61719 2.51953-1.61719L5.68359-1.61719 5.68359-13.1484 2.75391-11.4023C2.60547-11.3242 2.48633-11.2773 2.39648-11.2617 2.30664-11.2461 2.23438-11.2637 2.17969-11.3145 2.125-11.3652 2.08789-11.4492 2.06836-11.5664 2.04883-11.6836 2.03906-11.832 2.03906-12.0117 2.03906-12.1445 2.04492-12.2578 2.05664-12.3516 2.06836-12.4453 2.08594-12.5234 2.10938-12.5859 2.13281-12.6484 2.16602-12.7031 2.20898-12.75 2.25195-12.7969 2.30859-12.8437 2.37891-12.8906L5.87109-15.1289C5.90234-15.1523 5.94141-15.1719 5.98828-15.1875 6.03516-15.2031 6.09375-15.2187 6.16406-15.2344 6.23437-15.25 6.31641-15.2598 6.41016-15.2637 6.50391-15.2676 6.62109-15.2695 6.76172-15.2695 6.94922-15.2695 7.10547-15.2617 7.23047-15.2461 7.35547-15.2305 7.45312-15.209 7.52344-15.1816 7.59375-15.1543 7.64062-15.1191 7.66406-15.0762 7.6875-15.0332 7.69922-14.9883 7.69922-14.9414L7.69922-1.61719 10.4414-1.61719C10.5039-1.61719 10.5625-1.59961 10.6172-1.56445 10.6719-1.5293 10.7168-1.47852 10.752-1.41211 10.7871-1.3457 10.8145-1.26172 10.834-1.16016 10.8535-1.05859 10.8633-0.9375 10.8633-0.796875Z" transform="translate(17.3389 32)"/></g></g><text font-family="Calibri,Calibri_MSFontService,sans-serif" font-weight="400" font-size="24" transform="translate(332.642 321)">1</text><g clip-path="url(#clip5)" filter="url(#fx1)" transform="translate(328 290)"><g clip-path="url(#clip6)"><path d="M11.0508-14.2969C11.0508-14.1562 11.0449-14.0293 11.0332-13.916 11.0215-13.8027 11.0059-13.6934 10.9863-13.5879 10.9668-13.4824 10.9395-13.3809 10.9043-13.2832 10.8691-13.1855 10.8281-13.082 10.7812-12.9727L5.32031-0.386719C5.28125-0.292969 5.23242-0.216797 5.17383-0.158203 5.11523-0.0996094 5.04102-0.0527344 4.95117-0.0175781 4.86133 0.0175781 4.74609 0.0410156 4.60547 0.0527344 4.46484 0.0644531 4.29297 0.0703125 4.08984 0.0703125 3.82422 0.0703125 3.61719 0.0585937 3.46875 0.0351562 3.32031 0.0117188 3.21289-0.0253906 3.14648-0.0761719 3.08008-0.126953 3.05078-0.189453 3.05859-0.263672 3.06641-0.337891 3.09375-0.425781 3.14062-0.527344L8.88281-13.3945 1.60547-13.3945C1.45703-13.3945 1.3457-13.4727 1.27148-13.6289 1.19727-13.7852 1.16016-14.0039 1.16016-14.2852 1.16016-14.4336 1.16992-14.5625 1.18945-14.6719 1.20898-14.7812 1.23828-14.873 1.27734-14.9473 1.31641-15.0215 1.36328-15.0762 1.41797-15.1113 1.47266-15.1465 1.53516-15.1641 1.60547-15.1641L10.4414-15.1641C10.5508-15.1641 10.6465-15.1523 10.7285-15.1289 10.8105-15.1055 10.873-15.0586 10.916-14.9883 10.959-14.918 10.9922-14.8281 11.0156-14.7188 11.0391-14.6094 11.0508-14.4687 11.0508-14.2969Z" transform="translate(17.5056 32)"/></g></g><text font-family="Calibri,Calibri_MSFontService,sans-serif" font-weight="400" font-size="24" transform="translate(344.809 321)">7</text></g></svg>