<svg width="57" height="59" xmlns="http://www.w3.org/2000/svg" xmlns:xlink="http://www.w3.org/1999/xlink" overflow="hidden"><defs><filter id="fx0" x="-10%" y="-10%" width="120%" height="120%" filterUnits="userSpaceOnUse" primitiveUnits="userSpaceOnUse"><feComponentTransfer color-interpolation-filters="sRGB"><feFuncR type="discrete" tableValues="0 0"/><feFuncG type="discrete" tableValues="0 0"/><feFuncB type="discrete" tableValues="0 0"/><feFuncA type="linear" slope="0.4" intercept="0"/></feComponentTransfer><feGaussianBlur stdDeviation="0.572011 0.572011"/></filter><filter id="fx1" x="-10%" y="-10%" width="120%" height="120%" filterUnits="userSpaceOnUse" primitiveUnits="userSpaceOnUse"><feComponentTransfer color-interpolation-filters="sRGB"><feFuncR type="discrete" tableValues="0 0"/><feFuncG type="discrete" tableValues="0 0"/><feFuncB type="discrete" tableValues="0 0"/><feFuncA type="linear" slope="0.4" intercept="0"/></feComponentTransfer><feGaussianBlur stdDeviation="0.572011 0.572011"/></filter><clipPath id="clip2"><rect x="541" y="286" width="57" height="59"/></clipPath><clipPath id="clip3"><rect x="17" y="16" width="12" height="17"/></clipPath><clipPath id="clip4"><rect x="0" y="0" width="47" height="55"/></clipPath><clipPath id="clip5"><rect x="17" y="16" width="13" height="17"/></clipPath><clipPath id="clip6"><rect x="0" y="0" width="47" height="55"/></clipPath></defs><g clip-path="url(#clip2)" transform="translate(-541 -286)"><path d="M542 295C542 290.03 546.03 286 551 286L587 286C591.97 286 596 290.03 596 295L596 332C596 336.97 591.97 341 587 341L551 341C546.03 341 542 336.97 542 332Z" fill="#8E44AD" fill-rule="evenodd"/><g clip-path="url(#clip3)" filter="url(#fx0)" transform="translate(540 290)"><g clip-path="url(#clip4)"><path d="M10.8281-0.867188C10.8281-0.726562 10.8184-0.601562 10.7988-0.492188 10.7793-0.382812 10.752-0.291016 10.7168-0.216797 10.6816-0.142578 10.6348-0.0878906 10.5762-0.0527344 10.5176-0.0175781 10.4531 0 10.3828 0L2.00391 0C1.89453 0 1.79883-0.0136719 1.7168-0.0410156 1.63477-0.0683594 1.56445-0.113281 1.50586-0.175781 1.44727-0.238281 1.4043-0.328125 1.37695-0.445312 1.34961-0.5625 1.33594-0.707031 1.33594-0.878906 1.33594-1.03516 1.34198-1.17188 1.35406-1.28906 1.36615-1.40625 1.3923-1.50977 1.43253-1.59961 1.47275-1.68945 1.52307-1.7793 1.5835-1.86914 1.64392-1.95898 1.72241-2.05469 1.81897-2.15625L4.84991-5.27344C5.55035-5.99219 6.11191-6.63672 6.53458-7.20703 6.95724-7.77734 7.28329-8.29688 7.51273-8.76562 7.74216-9.23438 7.8931-9.66016 7.96555-10.043 8.03799-10.4258 8.07422-10.7852 8.07422-11.1211 8.07422-11.457 8.01779-11.7754 7.90494-12.0762 7.79208-12.377 7.62884-12.6406 7.41522-12.8672 7.2016-13.0937 6.93356-13.2734 6.61111-13.4062 6.28867-13.5391 5.91785-13.6055 5.49866-13.6055 5.00696-13.6055 4.56561-13.5391 4.17462-13.4062 3.78363-13.2734 3.44101-13.1289 3.14676-12.9727 2.85251-12.8164 2.60666-12.6719 2.40921-12.5391 2.21176-12.4062 2.06464-12.3398 1.96783-12.3398 1.91144-12.3398 1.86105-12.3555 1.81668-12.3867 1.77231-12.418 1.73602-12.4687 1.70782-12.5391 1.67963-12.6094 1.65747-12.7031 1.64136-12.8203 1.62524-12.9375 1.61719-13.0781 1.61719-13.2422 1.61719-13.3594 1.62109-13.4609 1.62891-13.5469 1.63672-13.6328 1.65039-13.707 1.66992-13.7695 1.68945-13.832 1.71484-13.8906 1.74609-13.9453 1.77734-14 1.83984-14.0684 1.93359-14.1504 2.02734-14.2324 2.18945-14.3437 2.41992-14.4844 2.65039-14.625 2.93945-14.7637 3.28711-14.9004 3.63477-15.0371 4.01758-15.1523 4.43555-15.2461 4.85352-15.3398 5.29297-15.3867 5.75391-15.3867 6.48828-15.3867 7.13086-15.2832 7.68164-15.0762 8.23242-14.8691 8.68945-14.5859 9.05273-14.2266 9.41602-13.8672 9.6875-13.4492 9.86719-12.9727 10.0469-12.4961 10.1367-11.9883 10.1367-11.4492 10.1367-10.9648 10.0938-10.4824 10.0078-10.002 9.92188-9.52148 9.74023-9.00195 9.46289-8.44336 9.18555-7.88477 8.78516-7.26367 8.26172-6.58008 7.73828-5.89648 7.04297-5.10938 6.17578-4.21875L3.77344-1.71094 10.3711-1.71094C10.4336-1.71094 10.4941-1.69336 10.5527-1.6582 10.6113-1.62305 10.6621-1.57031 10.7051-1.5 10.748-1.42969 10.7793-1.3418 10.7988-1.23633 10.8184-1.13086 10.8281-1.00781 10.8281-0.867188Z" transform="translate(17.3572 32)"/></g></g><text font-family="Calibri,Calibri_MSFontService,sans-serif" font-weight="400" font-size="24" transform="translate(556.661 321)">2</text><g clip-path="url(#clip5)" filter="url(#fx1)" transform="translate(552 290)"><g clip-path="url(#clip6)"><path d="M11.332-7.61719C11.332-6.45312 11.2402-5.39062 11.0566-4.42969 10.873-3.46875 10.5684-2.64258 10.1426-1.95117 9.7168-1.25977 9.16016-0.724609 8.47266-0.345703 7.78516 0.0332031 6.9375 0.222656 5.92969 0.222656 4.97656 0.222656 4.17383 0.0527344 3.52148-0.287109 2.86914-0.626953 2.34375-1.12695 1.94531-1.78711 1.54688-2.44727 1.26367-3.25977 1.0957-4.22461 0.927734-5.18945 0.84375-6.29688 0.84375-7.54688 0.84375-8.70312 0.9375-9.76367 1.125-10.7285 1.3125-11.6934 1.61719-12.5215 2.03906-13.2129 2.46094-13.9043 3.01562-14.4395 3.70312-14.8184 4.39062-15.1973 5.23438-15.3867 6.23438-15.3867 7.19531-15.3867 8.00195-15.2168 8.6543-14.877 9.30664-14.5371 9.83203-14.0371 10.2305-13.377 10.6289-12.7168 10.9121-11.9043 11.0801-10.9395 11.248-9.97461 11.332-8.86719 11.332-7.61719ZM9.26953-7.47656C9.26953-8.23438 9.24219-8.91406 9.1875-9.51562 9.13281-10.1172 9.05273-10.6484 8.94727-11.1094 8.8418-11.5703 8.70508-11.9668 8.53711-12.2988 8.36914-12.6309 8.16797-12.9043 7.93359-13.1191 7.69922-13.334 7.43164-13.4902 7.13086-13.5879 6.83008-13.6855 6.49219-13.7344 6.11719-13.7344 5.45312-13.7344 4.91406-13.5781 4.5-13.2656 4.08594-12.9531 3.75977-12.5234 3.52148-11.9766 3.2832-11.4297 3.12109-10.7891 3.03516-10.0547 2.94922-9.32031 2.90625-8.53125 2.90625-7.6875 2.90625-6.55469 2.96484-5.5918 3.08203-4.79883 3.19922-4.00586 3.38477-3.35937 3.63867-2.85938 3.89258-2.35938 4.2168-1.99609 4.61133-1.76953 5.00586-1.54297 5.48438-1.42969 6.04688-1.42969 6.48437-1.42969 6.86914-1.5 7.20117-1.64062 7.5332-1.78125 7.81836-1.98242 8.05664-2.24414 8.29492-2.50586 8.49219-2.82031 8.64844-3.1875 8.80469-3.55469 8.92969-3.96094 9.02344-4.40625 9.11719-4.85156 9.18164-5.33398 9.2168-5.85352 9.25195-6.37305 9.26953-6.91406 9.26953-7.47656Z" transform="translate(17.5238 32)"/></g></g><text font-family="Calibri,Calibri_MSFontService,sans-serif" font-weight="400" font-size="24" transform="translate(568.827 321)">0</text></g></svg>