<svg width="57" height="59" xmlns="http://www.w3.org/2000/svg" xmlns:xlink="http://www.w3.org/1999/xlink" overflow="hidden"><defs><filter id="fx0" x="-10%" y="-10%" width="120%" height="120%" filterUnits="userSpaceOnUse" primitiveUnits="userSpaceOnUse"><feComponentTransfer color-interpolation-filters="sRGB"><feFuncR type="discrete" tableValues="0 0"/><feFuncG type="discrete" tableValues="0 0"/><feFuncB type="discrete" tableValues="0 0"/><feFuncA type="linear" slope="0.4" intercept="0"/></feComponentTransfer><feGaussianBlur stdDeviation="0.572011 0.572011"/></filter><clipPath id="clip1"><rect x="392" y="286" width="57" height="59"/></clipPath><clipPath id="clip2"><rect x="18" y="16" width="24" height="17"/></clipPath><clipPath id="clip3"><rect x="0" y="0" width="59" height="55"/></clipPath></defs><g clip-path="url(#clip1)" transform="translate(-392 -286)"><path d="M393 295C393 290.03 397.03 286 402 286L438 286C442.97 286 447 290.03 447 295L447 332C447 336.97 442.97 341 438 341L402 341C397.03 341 393 336.97 393 332Z" fill="#F7DC6F" fill-rule="evenodd"/><g clip-path="url(#clip2)" filter="url(#fx0)" transform="translate(391 290)"><g clip-path="url(#clip3)"><path d="M10.8633-0.796875C10.8633-0.648438 10.8516-0.523438 10.8281-0.421875 10.8047-0.320312 10.7734-0.238281 10.7344-0.175781 10.6953-0.113281 10.6504-0.0683594 10.5996-0.0410156 10.5488-0.0136719 10.4961 0 10.4414 0L2.51953 0C2.46484 0 2.41406-0.0136719 2.36719-0.0410156 2.32031-0.0683594 2.27539-0.113281 2.23242-0.175781 2.18945-0.238281 2.15625-0.320312 2.13281-0.421875 2.10938-0.523438 2.09766-0.648438 2.09766-0.796875 2.09766-0.9375 2.10938-1.05859 2.13281-1.16016 2.15625-1.26172 2.18555-1.3457 2.2207-1.41211 2.25586-1.47852 2.29883-1.5293 2.34961-1.56445 2.40039-1.59961 2.45703-1.61719 2.51953-1.61719L5.68359-1.61719 5.68359-13.1484 2.75391-11.4023C2.60547-11.3242 2.48633-11.2773 2.39648-11.2617 2.30664-11.2461 2.23438-11.2637 2.17969-11.3145 2.125-11.3652 2.08789-11.4492 2.06836-11.5664 2.04883-11.6836 2.03906-11.832 2.03906-12.0117 2.03906-12.1445 2.04492-12.2578 2.05664-12.3516 2.06836-12.4453 2.08594-12.5234 2.10938-12.5859 2.13281-12.6484 2.16602-12.7031 2.20898-12.75 2.25195-12.7969 2.30859-12.8437 2.37891-12.8906L5.87109-15.1289C5.90234-15.1523 5.94141-15.1719 5.98828-15.1875 6.03516-15.2031 6.09375-15.2187 6.16406-15.2344 6.23437-15.25 6.31641-15.2598 6.41016-15.2637 6.50391-15.2676 6.62109-15.2695 6.76172-15.2695 6.94922-15.2695 7.10547-15.2617 7.23047-15.2461 7.35547-15.2305 7.45312-15.209 7.52344-15.1816 7.59375-15.1543 7.64062-15.1191 7.66406-15.0762 7.6875-15.0332 7.69922-14.9883 7.69922-14.9414L7.69922-1.61719 10.4414-1.61719C10.5039-1.61719 10.5625-1.59961 10.6172-1.56445 10.6719-1.5293 10.7168-1.47852 10.752-1.41211 10.7871-1.3457 10.8145-1.26172 10.834-1.16016 10.8535-1.05859 10.8633-0.9375 10.8633-0.796875ZM23.3464-3.89062C23.3464-3.23438 23.2292-2.65039 22.9948-2.13867 22.7604-1.62695 22.4225-1.19531 21.9811-0.84375 21.5397-0.492188 20.9948-0.226562 20.3464-0.046875 19.6979 0.132812 18.9557 0.222656 18.1198 0.222656 17.3385 0.222656 16.6393 0.140625 16.0221-0.0234375 15.4049-0.1875 14.8815-0.429688 14.4518-0.75 14.0221-1.07031 13.694-1.46484 13.4674-1.93359 13.2409-2.40234 13.1276-2.9375 13.1276-3.53906 13.1276-4.01562 13.2057-4.45312 13.362-4.85156 13.5182-5.25 13.7428-5.61719 14.0358-5.95312 14.3288-6.28906 14.6901-6.60352 15.1198-6.89648 15.5495-7.18945 16.0339-7.46875 16.5729-7.73438 16.1042-7.97656 15.6901-8.23242 15.3307-8.50195 14.9714-8.77148 14.6667-9.06445 14.4167-9.38086 14.1667-9.69727 13.9772-10.0352 13.8483-10.3945 13.7194-10.7539 13.6549-11.1445 13.6549-11.5664 13.6549-12.0977 13.7507-12.5957 13.9421-13.0605 14.1335-13.5254 14.4225-13.9297 14.8092-14.2734 15.196-14.6172 15.6882-14.8887 16.2858-15.0879 16.8835-15.2871 17.5807-15.3867 18.3776-15.3867 19.1432-15.3867 19.8053-15.2949 20.3639-15.1113 20.9225-14.9277 21.3835-14.6777 21.7467-14.3613 22.11-14.0449 22.3776-13.6719 22.5495-13.2422 22.7214-12.8125 22.8073-12.3516 22.8073-11.8594 22.8073-11.4609 22.7428-11.0781 22.6139-10.7109 22.485-10.3438 22.2956-9.99609 22.0456-9.66797 21.7956-9.33984 21.4889-9.0332 21.1257-8.74805 20.7624-8.46289 20.3464-8.19531 19.8776-7.94531 20.4323-7.67187 20.9264-7.39062 21.36-7.10156 21.7936-6.8125 22.1569-6.50195 22.4499-6.16992 22.7428-5.83789 22.9655-5.48633 23.1178-5.11523 23.2702-4.74414 23.3464-4.33594 23.3464-3.89062ZM20.8151-11.6719C20.8151-12 20.7585-12.2969 20.6452-12.5625 20.5319-12.8281 20.3659-13.0547 20.1471-13.2422 19.9284-13.4297 19.6569-13.5723 19.3327-13.6699 19.0085-13.7676 18.6393-13.8164 18.2253-13.8164 17.3815-13.8164 16.7428-13.625 16.3092-13.2422 15.8757-12.8594 15.6589-12.3359 15.6589-11.6719 15.6589-11.3672 15.7116-11.084 15.8171-10.8223 15.9225-10.5605 16.0866-10.3125 16.3092-10.0781 16.5319-9.84375 16.8132-9.61523 17.153-9.39258 17.4928-9.16992 17.8971-8.9375 18.3659-8.69531 19.1549-9.10156 19.7604-9.55078 20.1823-10.043 20.6042-10.5352 20.8151-11.0781 20.8151-11.6719ZM21.3073-3.67969C21.3073-4.03906 21.2409-4.36523 21.1081-4.6582 20.9753-4.95117 20.7741-5.22461 20.5046-5.47852 20.235-5.73242 19.8991-5.97852 19.4967-6.2168 19.0944-6.45508 18.6276-6.70312 18.0964-6.96094 17.6042-6.71875 17.1725-6.47656 16.8014-6.23438 16.4303-5.99219 16.1257-5.74219 15.8874-5.48438 15.6491-5.22656 15.4694-4.95508 15.3483-4.66992 15.2272-4.38477 15.1667-4.07031 15.1667-3.72656 15.1667-2.96875 15.4264-2.38281 15.946-1.96875 16.4655-1.55469 17.2409-1.34766 18.2721-1.34766 19.2721-1.34766 20.028-1.55664 20.5397-1.97461 21.0514-2.39258 21.3073-2.96094 21.3073-3.67969Z" transform="translate(17.5572 32)"/></g></g><text font-family="Calibri,Calibri_MSFontService,sans-serif" font-weight="400" font-size="24" transform="translate(407.861 321)">18</text></g></svg>