<svg width="58" height="60" xmlns="http://www.w3.org/2000/svg" xmlns:xlink="http://www.w3.org/1999/xlink" overflow="hidden"><defs><filter id="fx0" x="-10%" y="-10%" width="120%" height="120%" filterUnits="userSpaceOnUse" primitiveUnits="userSpaceOnUse"><feComponentTransfer color-interpolation-filters="sRGB"><feFuncR type="discrete" tableValues="0 0"/><feFuncG type="discrete" tableValues="0 0"/><feFuncB type="discrete" tableValues="0 0"/><feFuncA type="linear" slope="0.4" intercept="0"/></feComponentTransfer><feGaussianBlur stdDeviation="0.572011 0.572011"/></filter><clipPath id="clip1"><rect x="167" y="360" width="58" height="60"/></clipPath><clipPath id="clip2"><rect x="18" y="16" width="24" height="17"/></clipPath><clipPath id="clip3"><rect x="0" y="0" width="60" height="56"/></clipPath></defs><g clip-path="url(#clip1)" transform="translate(-167 -360)"><path d="M168 370C168 365.03 172.03 361 177 361L213 361C217.97 361 222 365.03 222 370L222 406C222 410.97 217.97 415 213 415L177 415C172.03 415 168 410.97 168 406Z" fill="#9EABB8" fill-rule="evenodd"/><g clip-path="url(#clip2)" filter="url(#fx0)" transform="translate(166 364)"><g clip-path="url(#clip3)"><path d="M10.8281-0.867188C10.8281-0.726562 10.8184-0.601562 10.7988-0.492188 10.7793-0.382812 10.752-0.291016 10.7168-0.216797 10.6816-0.142578 10.6348-0.0878906 10.5762-0.0527344 10.5176-0.0175781 10.4531 0 10.3828 0L2.00391 0C1.89453 0 1.79883-0.0136719 1.7168-0.0410156 1.63477-0.0683594 1.56445-0.113281 1.50586-0.175781 1.44727-0.238281 1.4043-0.328125 1.37695-0.445312 1.34961-0.5625 1.33594-0.707031 1.33594-0.878906 1.33594-1.03516 1.34198-1.17188 1.35406-1.28906 1.36615-1.40625 1.3923-1.50977 1.43253-1.59961 1.47275-1.68945 1.52307-1.7793 1.5835-1.86914 1.64392-1.95898 1.72241-2.05469 1.81897-2.15625L4.84991-5.27344C5.55035-5.99219 6.11191-6.63672 6.53458-7.20703 6.95724-7.77734 7.28329-8.29688 7.51273-8.76562 7.74216-9.23438 7.8931-9.66016 7.96555-10.043 8.03799-10.4258 8.07422-10.7852 8.07422-11.1211 8.07422-11.457 8.01779-11.7754 7.90494-12.0762 7.79208-12.377 7.62884-12.6406 7.41522-12.8672 7.2016-13.0937 6.93356-13.2734 6.61111-13.4062 6.28867-13.5391 5.91785-13.6055 5.49866-13.6055 5.00696-13.6055 4.56561-13.5391 4.17462-13.4062 3.78363-13.2734 3.44101-13.1289 3.14676-12.9727 2.85251-12.8164 2.60666-12.6719 2.40921-12.5391 2.21176-12.4062 2.06464-12.3398 1.96783-12.3398 1.91144-12.3398 1.86105-12.3555 1.81668-12.3867 1.77231-12.418 1.73602-12.4687 1.70782-12.5391 1.67963-12.6094 1.65747-12.7031 1.64136-12.8203 1.62524-12.9375 1.61719-13.0781 1.61719-13.2422 1.61719-13.3594 1.62109-13.4609 1.62891-13.5469 1.63672-13.6328 1.65039-13.707 1.66992-13.7695 1.68945-13.832 1.71484-13.8906 1.74609-13.9453 1.77734-14 1.83984-14.0684 1.93359-14.1504 2.02734-14.2324 2.18945-14.3437 2.41992-14.4844 2.65039-14.625 2.93945-14.7637 3.28711-14.9004 3.63477-15.0371 4.01758-15.1523 4.43555-15.2461 4.85352-15.3398 5.29297-15.3867 5.75391-15.3867 6.48828-15.3867 7.13086-15.2832 7.68164-15.0762 8.23242-14.8691 8.68945-14.5859 9.05273-14.2266 9.41602-13.8672 9.6875-13.4492 9.86719-12.9727 10.0469-12.4961 10.1367-11.9883 10.1367-11.4492 10.1367-10.9648 10.0938-10.4824 10.0078-10.002 9.92188-9.52148 9.74023-9.00195 9.46289-8.44336 9.18555-7.88477 8.78516-7.26367 8.26172-6.58008 7.73828-5.89648 7.04297-5.10938 6.17578-4.21875L3.77344-1.71094 10.3711-1.71094C10.4336-1.71094 10.4941-1.69336 10.5527-1.6582 10.6113-1.62305 10.6621-1.57031 10.7051-1.5 10.748-1.42969 10.7793-1.3418 10.7988-1.23633 10.8184-1.13086 10.8281-1.00781 10.8281-0.867188ZM23.2174-14.2969C23.2174-14.1562 23.2116-14.0293 23.1999-13.916 23.1882-13.8027 23.1725-13.6934 23.153-13.5879 23.1335-13.4824 23.1061-13.3809 23.071-13.2832 23.0358-13.1855 22.9948-13.082 22.9479-12.9727L17.487-0.386719C17.4479-0.292969 17.3991-0.216797 17.3405-0.158203 17.2819-0.0996094 17.2077-0.0527344 17.1178-0.0175781 17.028 0.0175781 16.9128 0.0410156 16.7721 0.0527344 16.6315 0.0644531 16.4596 0.0703125 16.2565 0.0703125 15.9909 0.0703125 15.7839 0.0585937 15.6354 0.0351562 15.487 0.0117188 15.3796-0.0253906 15.3132-0.0761719 15.2467-0.126953 15.2174-0.189453 15.2253-0.263672 15.2331-0.337891 15.2604-0.425781 15.3073-0.527344L21.0495-13.3945 13.7721-13.3945C13.6237-13.3945 13.5124-13.4727 13.4382-13.6289 13.3639-13.7852 13.3268-14.0039 13.3268-14.2852 13.3268-14.4336 13.3366-14.5625 13.3561-14.6719 13.3757-14.7812 13.4049-14.873 13.444-14.9473 13.4831-15.0215 13.5299-15.0762 13.5846-15.1113 13.6393-15.1465 13.7018-15.1641 13.7721-15.1641L22.6081-15.1641C22.7174-15.1641 22.8132-15.1523 22.8952-15.1289 22.9772-15.1055 23.0397-15.0586 23.0827-14.9883 23.1257-14.918 23.1589-14.8281 23.1823-14.7188 23.2057-14.6094 23.2174-14.4687 23.2174-14.2969Z" transform="translate(17.7206 32)"/></g></g><text font-family="Calibri,Calibri_MSFontService,sans-serif" font-weight="400" font-size="24" transform="translate(183.024 396)">27</text></g></svg>