<svg width="58" height="60" xmlns="http://www.w3.org/2000/svg" xmlns:xlink="http://www.w3.org/1999/xlink" overflow="hidden"><defs><filter id="fx0" x="-10%" y="-10%" width="120%" height="120%" filterUnits="userSpaceOnUse" primitiveUnits="userSpaceOnUse"><feComponentTransfer color-interpolation-filters="sRGB"><feFuncR type="discrete" tableValues="0 0"/><feFuncG type="discrete" tableValues="0 0"/><feFuncB type="discrete" tableValues="0 0"/><feFuncA type="linear" slope="0.4" intercept="0"/></feComponentTransfer><feGaussianBlur stdDeviation="0.572011 0.572011"/></filter><filter id="fx1" x="-10%" y="-10%" width="120%" height="120%" filterUnits="userSpaceOnUse" primitiveUnits="userSpaceOnUse"><feComponentTransfer color-interpolation-filters="sRGB"><feFuncR type="discrete" tableValues="0 0"/><feFuncG type="discrete" tableValues="0 0"/><feFuncB type="discrete" tableValues="0 0"/><feFuncA type="linear" slope="0.4" intercept="0"/></feComponentTransfer><feGaussianBlur stdDeviation="0.572011 0.572011"/></filter><clipPath id="clip2"><rect x="391" y="191" width="58" height="60"/></clipPath><clipPath id="clip3"><rect x="18" y="17" width="12" height="17"/></clipPath><clipPath id="clip4"><rect x="0" y="0" width="47" height="56"/></clipPath><clipPath id="clip5"><rect x="18" y="17" width="12" height="17"/></clipPath><clipPath id="clip6"><rect x="0" y="0" width="48" height="56"/></clipPath></defs><g clip-path="url(#clip2)" transform="translate(-391 -191)"><path d="M392 201C392 196.03 396.03 192 401 192L437 192C441.97 192 446 196.03 446 201L446 237C446 241.97 441.97 246 437 246L401 246C396.03 246 392 241.97 392 237Z" fill="#08E5EA" fill-rule="evenodd"/><g clip-path="url(#clip3)" filter="url(#fx0)" transform="translate(390 195)"><g clip-path="url(#clip4)"><path d="M10.8633-0.796875C10.8633-0.648438 10.8516-0.523438 10.8281-0.421875 10.8047-0.320312 10.7734-0.238281 10.7344-0.175781 10.6953-0.113281 10.6504-0.0683594 10.5996-0.0410156 10.5488-0.0136719 10.4961 0 10.4414 0L2.51953 0C2.46484 0 2.41406-0.0136719 2.36719-0.0410156 2.32031-0.0683594 2.27539-0.113281 2.23242-0.175781 2.18945-0.238281 2.15625-0.320312 2.13281-0.421875 2.10938-0.523438 2.09766-0.648438 2.09766-0.796875 2.09766-0.9375 2.10938-1.05859 2.13281-1.16016 2.15625-1.26172 2.18555-1.3457 2.2207-1.41211 2.25586-1.47852 2.29883-1.5293 2.34961-1.56445 2.40039-1.59961 2.45703-1.61719 2.51953-1.61719L5.68359-1.61719 5.68359-13.1484 2.75391-11.4023C2.60547-11.3242 2.48633-11.2773 2.39648-11.2617 2.30664-11.2461 2.23438-11.2637 2.17969-11.3145 2.125-11.3652 2.08789-11.4492 2.06836-11.5664 2.04883-11.6836 2.03906-11.832 2.03906-12.0117 2.03906-12.1445 2.04492-12.2578 2.05664-12.3516 2.06836-12.4453 2.08594-12.5234 2.10938-12.5859 2.13281-12.6484 2.16602-12.7031 2.20898-12.75 2.25195-12.7969 2.30859-12.8437 2.37891-12.8906L5.87109-15.1289C5.90234-15.1523 5.94141-15.1719 5.98828-15.1875 6.03516-15.2031 6.09375-15.2187 6.16406-15.2344 6.23437-15.25 6.31641-15.2598 6.41016-15.2637 6.50391-15.2676 6.62109-15.2695 6.76172-15.2695 6.94922-15.2695 7.10547-15.2617 7.23047-15.2461 7.35547-15.2305 7.45312-15.209 7.52344-15.1816 7.59375-15.1543 7.64062-15.1191 7.66406-15.0762 7.6875-15.0332 7.69922-14.9883 7.69922-14.9414L7.69922-1.61719 10.4414-1.61719C10.5039-1.61719 10.5625-1.59961 10.6172-1.56445 10.6719-1.5293 10.7168-1.47852 10.752-1.41211 10.7871-1.3457 10.8145-1.26172 10.834-1.16016 10.8535-1.05859 10.8633-0.9375 10.8633-0.796875Z" transform="translate(17.7389 33)"/></g></g><text font-family="Calibri,Calibri_MSFontService,sans-serif" font-weight="400" font-size="24" transform="translate(407.042 227)">1</text><g clip-path="url(#clip5)" filter="url(#fx1)" transform="translate(402 195)"><g clip-path="url(#clip6)"><path d="M10.7578-4.875C10.7578-4.0625 10.6211-3.33984 10.3477-2.70703 10.0742-2.07422 9.6875-1.54102 9.1875-1.10742 8.6875-0.673828 8.0918-0.34375 7.40039-0.117188 6.70898 0.109375 5.94141 0.222656 5.09766 0.222656 4.62891 0.222656 4.18359 0.189453 3.76172 0.123047 3.33984 0.0566406 2.96484-0.0253906 2.63672-0.123047 2.30859-0.220703 2.03906-0.316406 1.82812-0.410156 1.61719-0.503906 1.48242-0.578125 1.42383-0.632812 1.36523-0.6875 1.32422-0.738281 1.30078-0.785156 1.27734-0.832031 1.25586-0.888672 1.23633-0.955078 1.2168-1.02148 1.20312-1.10547 1.19531-1.20703 1.1875-1.30859 1.18359-1.42969 1.18359-1.57031 1.18359-1.70312 1.18945-1.82227 1.20117-1.92773 1.21289-2.0332 1.23438-2.11914 1.26562-2.18555 1.29688-2.25195 1.33398-2.30078 1.37695-2.33203 1.41992-2.36328 1.46875-2.37891 1.52344-2.37891 1.60156-2.37891 1.72266-2.33008 1.88672-2.23242 2.05078-2.13477 2.27148-2.0293 2.54883-1.91602 2.82617-1.80273 3.16992-1.69531 3.58008-1.59375 3.99023-1.49219 4.47656-1.44141 5.03906-1.44141 5.5625-1.44141 6.04297-1.50391 6.48047-1.62891 6.91797-1.75391 7.29492-1.94922 7.61133-2.21484 7.92773-2.48047 8.17578-2.81445 8.35547-3.2168 8.53516-3.61914 8.625-4.10938 8.625-4.6875 8.625-5.17188 8.54883-5.59961 8.39648-5.9707 8.24414-6.3418 8.00977-6.65039 7.69336-6.89648 7.37695-7.14258 6.97656-7.32617 6.49219-7.44727 6.00781-7.56836 5.42969-7.62891 4.75781-7.62891 4.28125-7.62891 3.87109-7.60547 3.52734-7.55859 3.18359-7.51172 2.86328-7.48828 2.56641-7.48828 2.34766-7.48828 2.19141-7.53906 2.09766-7.64062 2.00391-7.74219 1.95703-7.9375 1.95703-8.22656L1.95703-14.4023C1.95703-14.6602 2.01758-14.8516 2.13867-14.9766 2.25977-15.1016 2.43359-15.1641 2.66016-15.1641L9.375-15.1641C9.4375-15.1641 9.49805-15.1465 9.55664-15.1113 9.61523-15.0762 9.66406-15.0234 9.70312-14.9531 9.74219-14.8828 9.77148-14.793 9.79102-14.6836 9.81055-14.5742 9.82031-14.4453 9.82031-14.2969 9.82031-14.0156 9.7829-13.7969 9.70807-13.6406 9.63324-13.4844 9.5285-13.4062 9.39386-13.4062L3.97266-13.4062 3.97266-9.15234C4.23608-9.19141 4.50516-9.21484 4.77988-9.22266 5.0546-9.23047 5.37262-9.23438 5.73395-9.23438 6.56927-9.23438 7.29932-9.13086 7.92407-8.92383 8.54883-8.7168 9.07007-8.42383 9.48779-8.04492 9.90552-7.66602 10.2216-7.20703 10.4361-6.66797 10.6506-6.12891 10.7578-5.53125 10.7578-4.875Z" transform="translate(17.9056 33)"/></g></g><text font-family="Calibri,Calibri_MSFontService,sans-serif" font-weight="400" font-size="24" transform="translate(419.209 227)">5</text></g></svg>