<svg width="58" height="59" xmlns="http://www.w3.org/2000/svg" xmlns:xlink="http://www.w3.org/1999/xlink" overflow="hidden"><defs><filter id="fx0" x="-10%" y="-10%" width="120%" height="120%" filterUnits="userSpaceOnUse" primitiveUnits="userSpaceOnUse"><feComponentTransfer color-interpolation-filters="sRGB"><feFuncR type="discrete" tableValues="0 0"/><feFuncG type="discrete" tableValues="0 0"/><feFuncB type="discrete" tableValues="0 0"/><feFuncA type="linear" slope="0.4" intercept="0"/></feComponentTransfer><feGaussianBlur stdDeviation="0.572011 0.572011"/></filter><filter id="fx1" x="-10%" y="-10%" width="120%" height="120%" filterUnits="userSpaceOnUse" primitiveUnits="userSpaceOnUse"><feComponentTransfer color-interpolation-filters="sRGB"><feFuncR type="discrete" tableValues="0 0"/><feFuncG type="discrete" tableValues="0 0"/><feFuncB type="discrete" tableValues="0 0"/><feFuncA type="linear" slope="0.4" intercept="0"/></feComponentTransfer><feGaussianBlur stdDeviation="0.572011 0.572011"/></filter><clipPath id="clip2"><rect x="985" y="286" width="58" height="59"/></clipPath><clipPath id="clip3"><rect x="17" y="16" width="12" height="17"/></clipPath><clipPath id="clip4"><rect x="0" y="0" width="47" height="55"/></clipPath><clipPath id="clip5"><rect x="17" y="16" width="13" height="17"/></clipPath><clipPath id="clip6"><rect x="0" y="0" width="47" height="55"/></clipPath></defs><g clip-path="url(#clip2)" transform="translate(-985 -286)"><path d="M986 295.167C986 290.104 990.104 286 995.167 286L1031.83 286C1036.9 286 1041 290.104 1041 295.167L1041 331.833C1041 336.896 1036.9 341 1031.83 341L995.167 341C990.104 341 986 336.896 986 331.833Z" fill="#2385CF" fill-rule="evenodd"/><g clip-path="url(#clip3)" filter="url(#fx0)" transform="translate(985 290)"><g clip-path="url(#clip4)"><path d="M10.8281-0.867188C10.8281-0.726562 10.8184-0.601562 10.7988-0.492188 10.7793-0.382812 10.752-0.291016 10.7168-0.216797 10.6816-0.142578 10.6348-0.0878906 10.5762-0.0527344 10.5176-0.0175781 10.4531 0 10.3828 0L2.00391 0C1.89453 0 1.79883-0.0136719 1.7168-0.0410156 1.63477-0.0683594 1.56445-0.113281 1.50586-0.175781 1.44727-0.238281 1.4043-0.328125 1.37695-0.445312 1.34961-0.5625 1.33594-0.707031 1.33594-0.878906 1.33594-1.03516 1.34198-1.17188 1.35406-1.28906 1.36615-1.40625 1.3923-1.50977 1.43253-1.59961 1.47275-1.68945 1.52307-1.7793 1.5835-1.86914 1.64392-1.95898 1.72241-2.05469 1.81897-2.15625L4.84991-5.27344C5.55035-5.99219 6.11191-6.63672 6.53458-7.20703 6.95724-7.77734 7.28329-8.29688 7.51273-8.76562 7.74216-9.23438 7.8931-9.66016 7.96555-10.043 8.03799-10.4258 8.07422-10.7852 8.07422-11.1211 8.07422-11.457 8.01779-11.7754 7.90494-12.0762 7.79208-12.377 7.62884-12.6406 7.41522-12.8672 7.2016-13.0937 6.93356-13.2734 6.61111-13.4062 6.28867-13.5391 5.91785-13.6055 5.49866-13.6055 5.00696-13.6055 4.56561-13.5391 4.17462-13.4062 3.78363-13.2734 3.44101-13.1289 3.14676-12.9727 2.85251-12.8164 2.60666-12.6719 2.40921-12.5391 2.21176-12.4062 2.06464-12.3398 1.96783-12.3398 1.91144-12.3398 1.86105-12.3555 1.81668-12.3867 1.77231-12.418 1.73602-12.4687 1.70782-12.5391 1.67963-12.6094 1.65747-12.7031 1.64136-12.8203 1.62524-12.9375 1.61719-13.0781 1.61719-13.2422 1.61719-13.3594 1.62109-13.4609 1.62891-13.5469 1.63672-13.6328 1.65039-13.707 1.66992-13.7695 1.68945-13.832 1.71484-13.8906 1.74609-13.9453 1.77734-14 1.83984-14.0684 1.93359-14.1504 2.02734-14.2324 2.18945-14.3437 2.41992-14.4844 2.65039-14.625 2.93945-14.7637 3.28711-14.9004 3.63477-15.0371 4.01758-15.1523 4.43555-15.2461 4.85352-15.3398 5.29297-15.3867 5.75391-15.3867 6.48828-15.3867 7.13086-15.2832 7.68164-15.0762 8.23242-14.8691 8.68945-14.5859 9.05273-14.2266 9.41602-13.8672 9.6875-13.4492 9.86719-12.9727 10.0469-12.4961 10.1367-11.9883 10.1367-11.4492 10.1367-10.9648 10.0938-10.4824 10.0078-10.002 9.92188-9.52148 9.74023-9.00195 9.46289-8.44336 9.18555-7.88477 8.78516-7.26367 8.26172-6.58008 7.73828-5.89648 7.04297-5.10938 6.17578-4.21875L3.77344-1.71094 10.3711-1.71094C10.4336-1.71094 10.4941-1.69336 10.5527-1.6582 10.6113-1.62305 10.6621-1.57031 10.7051-1.5 10.748-1.42969 10.7793-1.3418 10.7988-1.23633 10.8184-1.13086 10.8281-1.00781 10.8281-0.867188Z" transform="translate(17.212 32)"/></g></g><text font-family="Calibri,Calibri_MSFontService,sans-serif" font-weight="400" font-size="24" transform="translate(1001.52 321)">2</text><g clip-path="url(#clip5)" filter="url(#fx1)" transform="translate(997 290)"><g clip-path="url(#clip6)"><path d="M11.2148-4.91016C11.2148-4.24609 11.1133-3.60352 10.9102-2.98242 10.707-2.36133 10.3945-1.81445 9.97266-1.3418 9.55078-0.869141 9.01562-0.490234 8.36719-0.205078 7.71875 0.0800781 6.95312 0.222656 6.07031 0.222656 5.4375 0.222656 4.87891 0.144531 4.39453-0.0117188 3.91016-0.167969 3.48828-0.390625 3.12891-0.679688 2.76953-0.96875 2.4707-1.32422 2.23242-1.74609 1.99414-2.16797 1.80273-2.64844 1.6582-3.1875 1.51367-3.72656 1.41016-4.31641 1.34766-4.95703 1.28516-5.59766 1.25391-6.28516 1.25391-7.01953 1.25391-7.66797 1.28906-8.32422 1.35938-8.98828 1.42969-9.65234 1.55469-10.293 1.73438-10.9102 1.91406-11.5273 2.1582-12.1074 2.4668-12.6504 2.77539-13.1934 3.16211-13.666 3.62695-14.0684 4.0918-14.4707 4.64844-14.7891 5.29688-15.0234 5.94531-15.2578 6.69922-15.375 7.55859-15.375 7.84766-15.375 8.14062-15.3574 8.4375-15.3223 8.73438-15.2871 9.00781-15.2402 9.25781-15.1816 9.50781-15.123 9.71875-15.0586 9.89062-14.9883 10.0625-14.918 10.1758-14.8613 10.2305-14.8184 10.2852-14.7754 10.3262-14.7285 10.3535-14.6777 10.3809-14.627 10.4023-14.5723 10.418-14.5137 10.4336-14.4551 10.4453-14.3887 10.4531-14.3145 10.4609-14.2402 10.4648-14.1484 10.4648-14.0391 10.4648-13.8984 10.4629-13.7773 10.459-13.6758 10.4551-13.5742 10.4395-13.4922 10.4121-13.4297 10.3848-13.3672 10.3496-13.3203 10.3066-13.2891 10.2637-13.2578 10.207-13.2422 10.1367-13.2422 10.0508-13.2422 9.93359-13.2695 9.78516-13.3242 9.63672-13.3789 9.45703-13.4395 9.24609-13.5059 9.03516-13.5723 8.7793-13.6328 8.47852-13.6875 8.17773-13.7422 7.82812-13.7695 7.42969-13.7695 6.70312-13.7695 6.07812-13.6211 5.55469-13.3242 5.03125-13.0273 4.60352-12.6289 4.27148-12.1289 3.93945-11.6289 3.69336-11.0488 3.5332-10.3887 3.37305-9.72852 3.28125-9.03906 3.25781-8.32031 3.46094-8.4375 3.68945-8.55469 3.94336-8.67188 4.19727-8.78906 4.47461-8.89453 4.77539-8.98828 5.07617-9.08203 5.39453-9.1582 5.73047-9.2168 6.06641-9.27539 6.42578-9.30469 6.80859-9.30469 7.62891-9.30469 8.32031-9.19336 8.88281-8.9707 9.44531-8.74805 9.90039-8.43945 10.248-8.04492 10.5957-7.65039 10.8438-7.18555 10.9922-6.65039 11.1406-6.11523 11.2148-5.53516 11.2148-4.91016ZM9.17578-4.72266C9.17578-5.17578 9.13086-5.58789 9.04102-5.95898 8.95117-6.33008 8.80078-6.64453 8.58984-6.90234 8.37891-7.16016 8.09766-7.35937 7.74609-7.5 7.39453-7.64062 6.96094-7.71094 6.44531-7.71094 6.15625-7.71094 5.86719-7.68555 5.57812-7.63477 5.28906-7.58398 5.00977-7.51367 4.74023-7.42383 4.4707-7.33398 4.21289-7.22852 3.9668-7.10742 3.7207-6.98633 3.49609-6.85547 3.29297-6.71484 3.29297-5.70703 3.35742-4.86328 3.48633-4.18359 3.61523-3.50391 3.80273-2.95898 4.04883-2.54883 4.29492-2.13867 4.60156-1.8457 4.96875-1.66992 5.33594-1.49414 5.76562-1.40625 6.25781-1.40625 6.75781-1.40625 7.19141-1.5 7.55859-1.6875 7.92578-1.875 8.23047-2.12695 8.47266-2.44336 8.71484-2.75977 8.89258-3.11523 9.00586-3.50977 9.11914-3.9043 9.17578-4.30859 9.17578-4.72266Z" transform="translate(17.3787 32)"/></g></g><text font-family="Calibri,Calibri_MSFontService,sans-serif" font-weight="400" font-size="24" transform="translate(1013.68 321)">6</text></g></svg>