<svg width="57" height="59" xmlns="http://www.w3.org/2000/svg" xmlns:xlink="http://www.w3.org/1999/xlink" overflow="hidden"><defs><filter id="fx0" x="-10%" y="-10%" width="120%" height="120%" filterUnits="userSpaceOnUse" primitiveUnits="userSpaceOnUse"><feComponentTransfer color-interpolation-filters="sRGB"><feFuncR type="discrete" tableValues="0 0"/><feFuncG type="discrete" tableValues="0 0"/><feFuncB type="discrete" tableValues="0 0"/><feFuncA type="linear" slope="0.4" intercept="0"/></feComponentTransfer><feGaussianBlur stdDeviation="0.572011 0.572011"/></filter><clipPath id="clip1"><rect x="837" y="286" width="57" height="59"/></clipPath><clipPath id="clip2"><rect x="17" y="16" width="25" height="17"/></clipPath><clipPath id="clip3"><rect x="0" y="0" width="59" height="55"/></clipPath></defs><g clip-path="url(#clip1)" transform="translate(-837 -286)"><path d="M838 295C838 290.03 842.03 286 847 286L883 286C887.97 286 892 290.03 892 295L892 332C892 336.97 887.97 341 883 341L847 341C842.03 341 838 336.97 838 332Z" fill="#B7C79F" fill-rule="evenodd"/><g clip-path="url(#clip2)" filter="url(#fx0)" transform="translate(836 290)"><g clip-path="url(#clip3)"><path d="M10.8281-0.867188C10.8281-0.726562 10.8184-0.601562 10.7988-0.492188 10.7793-0.382812 10.752-0.291016 10.7168-0.216797 10.6816-0.142578 10.6348-0.0878906 10.5762-0.0527344 10.5176-0.0175781 10.4531 0 10.3828 0L2.00391 0C1.89453 0 1.79883-0.0136719 1.7168-0.0410156 1.63477-0.0683594 1.56445-0.113281 1.50586-0.175781 1.44727-0.238281 1.4043-0.328125 1.37695-0.445312 1.34961-0.5625 1.33594-0.707031 1.33594-0.878906 1.33594-1.03516 1.34198-1.17188 1.35406-1.28906 1.36615-1.40625 1.3923-1.50977 1.43253-1.59961 1.47275-1.68945 1.52307-1.7793 1.5835-1.86914 1.64392-1.95898 1.72241-2.05469 1.81897-2.15625L4.84991-5.27344C5.55035-5.99219 6.11191-6.63672 6.53458-7.20703 6.95724-7.77734 7.28329-8.29688 7.51273-8.76562 7.74216-9.23438 7.8931-9.66016 7.96555-10.043 8.03799-10.4258 8.07422-10.7852 8.07422-11.1211 8.07422-11.457 8.01779-11.7754 7.90494-12.0762 7.79208-12.377 7.62884-12.6406 7.41522-12.8672 7.2016-13.0937 6.93356-13.2734 6.61111-13.4062 6.28867-13.5391 5.91785-13.6055 5.49866-13.6055 5.00696-13.6055 4.56561-13.5391 4.17462-13.4062 3.78363-13.2734 3.44101-13.1289 3.14676-12.9727 2.85251-12.8164 2.60666-12.6719 2.40921-12.5391 2.21176-12.4062 2.06464-12.3398 1.96783-12.3398 1.91144-12.3398 1.86105-12.3555 1.81668-12.3867 1.77231-12.418 1.73602-12.4687 1.70782-12.5391 1.67963-12.6094 1.65747-12.7031 1.64136-12.8203 1.62524-12.9375 1.61719-13.0781 1.61719-13.2422 1.61719-13.3594 1.62109-13.4609 1.62891-13.5469 1.63672-13.6328 1.65039-13.707 1.66992-13.7695 1.68945-13.832 1.71484-13.8906 1.74609-13.9453 1.77734-14 1.83984-14.0684 1.93359-14.1504 2.02734-14.2324 2.18945-14.3437 2.41992-14.4844 2.65039-14.625 2.93945-14.7637 3.28711-14.9004 3.63477-15.0371 4.01758-15.1523 4.43555-15.2461 4.85352-15.3398 5.29297-15.3867 5.75391-15.3867 6.48828-15.3867 7.13086-15.2832 7.68164-15.0762 8.23242-14.8691 8.68945-14.5859 9.05273-14.2266 9.41602-13.8672 9.6875-13.4492 9.86719-12.9727 10.0469-12.4961 10.1367-11.9883 10.1367-11.4492 10.1367-10.9648 10.0938-10.4824 10.0078-10.002 9.92188-9.52148 9.74023-9.00195 9.46289-8.44336 9.18555-7.88477 8.78516-7.26367 8.26172-6.58008 7.73828-5.89648 7.04297-5.10938 6.17578-4.21875L3.77344-1.71094 10.3711-1.71094C10.4336-1.71094 10.4941-1.69336 10.5527-1.6582 10.6113-1.62305 10.6621-1.57031 10.7051-1.5 10.748-1.42969 10.7793-1.3418 10.7988-1.23633 10.8184-1.13086 10.8281-1.00781 10.8281-0.867188ZM23.6393-4.3125C23.6393-4.05469 23.6003-3.85156 23.5221-3.70312 23.444-3.55469 23.3346-3.48047 23.194-3.48047L21.4831-3.48047 21.4831-0.292969C21.4831-0.230469 21.467-0.177734 21.4348-0.134766 21.4027-0.0917969 21.3463-0.0546875 21.2658-0.0234375 21.1853 0.0078125 21.0807 0.03125 20.952 0.046875 20.8233 0.0625 20.6583 0.0703125 20.4571 0.0703125 20.264 0.0703125 20.1031 0.0625 19.9744 0.046875 19.8457 0.03125 19.7431 0.0078125 19.6666-0.0234375 19.5901-0.0546875 19.5378-0.0917969 19.5097-0.134766 19.4815-0.177734 19.4674-0.230469 19.4674-0.292969L19.4674-3.48047 13.2637-3.48047C13.1706-3.48047 13.0931-3.49219 13.0312-3.51562 12.9692-3.53906 12.9131-3.58203 12.8627-3.64453 12.8124-3.70703 12.7775-3.79687 12.7582-3.91406 12.7388-4.03125 12.7292-4.18359 12.7292-4.37109 12.7292-4.51953 12.733-4.65234 12.7408-4.76953 12.7485-4.88672 12.764-4.99414 12.7872-5.0918 12.8104-5.18945 12.8413-5.2832 12.88-5.37305 12.9186-5.46289 12.965-5.55859 13.0192-5.66016L18.4245-14.8711C18.4643-14.9336 18.522-14.9883 18.5977-15.0352 18.6734-15.082 18.771-15.1211 18.8905-15.1523 19.01-15.1836 19.1574-15.2051 19.3326-15.2168 19.5078-15.2285 19.7149-15.2344 19.9538-15.2344 20.2166-15.2344 20.4456-15.2246 20.6408-15.2051 20.836-15.1855 20.9933-15.1602 21.1127-15.1289 21.2322-15.0977 21.3238-15.0566 21.3875-15.0059 21.4512-14.9551 21.4831-14.8945 21.4831-14.8242L21.4831-5.14453 23.194-5.14453C23.3268-5.14453 23.4342-5.07617 23.5163-4.93945 23.5983-4.80273 23.6393-4.59375 23.6393-4.3125ZM19.4674-13.4648 19.4444-13.4648 14.569-5.14453 19.4674-5.14453Z" transform="translate(17.412 32)"/></g></g><text font-family="Calibri,Calibri_MSFontService,sans-serif" font-weight="400" font-size="24" transform="translate(852.716 321)">24</text></g></svg>