<svg width="55" height="60" xmlns="http://www.w3.org/2000/svg" xmlns:xlink="http://www.w3.org/1999/xlink" overflow="hidden"><defs><filter id="fx0" x="-10%" y="-10%" width="120%" height="120%" filterUnits="userSpaceOnUse" primitiveUnits="userSpaceOnUse"><feComponentTransfer color-interpolation-filters="sRGB"><feFuncR type="discrete" tableValues="0 0"/><feFuncG type="discrete" tableValues="0 0"/><feFuncB type="discrete" tableValues="0 0"/><feFuncA type="linear" slope="0.4" intercept="0"/></feComponentTransfer><feGaussianBlur stdDeviation="0.572011 0.572011"/></filter><clipPath id="clip1"><rect x="467" y="117" width="55" height="60"/></clipPath><clipPath id="clip2"><rect x="16" y="16" width="14" height="17"/></clipPath><clipPath id="clip3"><rect x="0" y="0" width="47" height="56"/></clipPath></defs><g clip-path="url(#clip1)" transform="translate(-467 -117)"><path d="M467 127C467 122.03 471.03 118 476 118L513 118C517.97 118 522 122.03 522 127L522 163C522 167.97 517.97 172 513 172L476 172C471.03 172 467 167.97 467 163Z" fill="#E74C3C" fill-rule="evenodd"/><g clip-path="url(#clip2)" filter="url(#fx0)" transform="translate(472 121)"><g clip-path="url(#clip3)"><path d="M11.4727-4.3125C11.4727-4.05469 11.4336-3.85156 11.3555-3.70312 11.2773-3.55469 11.168-3.48047 11.0273-3.48047L9.31641-3.48047 9.31641-0.292969C9.31641-0.230469 9.30032-0.177734 9.26816-0.134766 9.23599-0.0917969 9.17966-0.0546875 9.09915-0.0234375 9.01865 0.0078125 8.91403 0.03125 8.78531 0.046875 8.65659 0.0625 8.49164 0.0703125 8.29047 0.0703125 8.09735 0.0703125 7.93643 0.0625 7.80771 0.046875 7.67899 0.03125 7.57639 0.0078125 7.49991-0.0234375 7.42343-0.0546875 7.37112-0.0917969 7.34299-0.134766 7.31485-0.177734 7.30078-0.230469 7.30078-0.292969L7.30078-3.48047 1.09698-3.48047C1.00397-3.48047 0.926483-3.49219 0.864532-3.51562 0.802582-3.53906 0.746429-3.58203 0.696075-3.64453 0.645721-3.70703 0.61087-3.79687 0.591522-3.91406 0.572174-4.03125 0.5625-4.18359 0.5625-4.37109 0.5625-4.51953 0.566376-4.65234 0.574127-4.76953 0.581879-4.88672 0.597351-4.99414 0.620544-5.0918 0.643738-5.18945 0.674652-5.2832 0.713287-5.37305 0.751923-5.46289 0.79834-5.55859 0.852539-5.66016L6.25781-14.8711C6.29761-14.9336 6.35535-14.9883 6.43103-15.0352 6.50671-15.082 6.60431-15.1211 6.72382-15.1523 6.84332-15.1836 6.99069-15.2051 7.16592-15.2168 7.34116-15.2285 7.54822-15.2344 7.78711-15.2344 8.04993-15.2344 8.27893-15.2246 8.47412-15.2051 8.66931-15.1855 8.82663-15.1602 8.94608-15.1289 9.06552-15.0977 9.1571-15.0566 9.22083-15.0059 9.28455-14.9551 9.31641-14.8945 9.31641-14.8242L9.31641-5.14453 11.0273-5.14453C11.1602-5.14453 11.2676-5.07617 11.3496-4.93945 11.4316-4.80273 11.4727-4.59375 11.4727-4.3125ZM7.30078-13.4648 7.27771-13.4648 2.40234-5.14453 7.30078-5.14453Z" transform="translate(17.0405 32)"/></g></g><text font-family="Calibri,Calibri_MSFontService,sans-serif" font-weight="400" font-size="24" transform="translate(488.344 152)">4</text></g></svg>