<svg width="58" height="60" xmlns="http://www.w3.org/2000/svg" xmlns:xlink="http://www.w3.org/1999/xlink" overflow="hidden"><defs><filter id="fx0" x="-10%" y="-10%" width="120%" height="120%" filterUnits="userSpaceOnUse" primitiveUnits="userSpaceOnUse"><feComponentTransfer color-interpolation-filters="sRGB"><feFuncR type="discrete" tableValues="0 0"/><feFuncG type="discrete" tableValues="0 0"/><feFuncB type="discrete" tableValues="0 0"/><feFuncA type="linear" slope="0.4" intercept="0"/></feComponentTransfer><feGaussianBlur stdDeviation="0.572011 0.572011"/></filter><filter id="fx1" x="-10%" y="-10%" width="120%" height="120%" filterUnits="userSpaceOnUse" primitiveUnits="userSpaceOnUse"><feComponentTransfer color-interpolation-filters="sRGB"><feFuncR type="discrete" tableValues="0 0"/><feFuncG type="discrete" tableValues="0 0"/><feFuncB type="discrete" tableValues="0 0"/><feFuncA type="linear" slope="0.4" intercept="0"/></feComponentTransfer><feGaussianBlur stdDeviation="0.572011 0.572011"/></filter><clipPath id="clip2"><rect x="911" y="117" width="58" height="60"/></clipPath><clipPath id="clip3"><rect x="18" y="16" width="12" height="17"/></clipPath><clipPath id="clip4"><rect x="0" y="0" width="47" height="56"/></clipPath><clipPath id="clip5"><rect x="17" y="16" width="14" height="17"/></clipPath><clipPath id="clip6"><rect x="0" y="0" width="48" height="56"/></clipPath></defs><g clip-path="url(#clip2)" transform="translate(-911 -117)"><path d="M912 127C912 122.03 916.03 118 921 118L957 118C961.97 118 966 122.03 966 127L966 163C966 167.97 961.97 172 957 172L921 172C916.03 172 912 167.97 912 163Z" fill="#C92A19" fill-rule="evenodd"/><g clip-path="url(#clip3)" filter="url(#fx0)" transform="translate(910 121)"><g clip-path="url(#clip4)"><path d="M10.8633-0.796875C10.8633-0.648438 10.8516-0.523438 10.8281-0.421875 10.8047-0.320312 10.7734-0.238281 10.7344-0.175781 10.6953-0.113281 10.6504-0.0683594 10.5996-0.0410156 10.5488-0.0136719 10.4961 0 10.4414 0L2.51953 0C2.46484 0 2.41406-0.0136719 2.36719-0.0410156 2.32031-0.0683594 2.27539-0.113281 2.23242-0.175781 2.18945-0.238281 2.15625-0.320312 2.13281-0.421875 2.10938-0.523438 2.09766-0.648438 2.09766-0.796875 2.09766-0.9375 2.10938-1.05859 2.13281-1.16016 2.15625-1.26172 2.18555-1.3457 2.2207-1.41211 2.25586-1.47852 2.29883-1.5293 2.34961-1.56445 2.40039-1.59961 2.45703-1.61719 2.51953-1.61719L5.68359-1.61719 5.68359-13.1484 2.75391-11.4023C2.60547-11.3242 2.48633-11.2773 2.39648-11.2617 2.30664-11.2461 2.23438-11.2637 2.17969-11.3145 2.125-11.3652 2.08789-11.4492 2.06836-11.5664 2.04883-11.6836 2.03906-11.832 2.03906-12.0117 2.03906-12.1445 2.04492-12.2578 2.05664-12.3516 2.06836-12.4453 2.08594-12.5234 2.10938-12.5859 2.13281-12.6484 2.16602-12.7031 2.20898-12.75 2.25195-12.7969 2.30859-12.8437 2.37891-12.8906L5.87109-15.1289C5.90234-15.1523 5.94141-15.1719 5.98828-15.1875 6.03516-15.2031 6.09375-15.2187 6.16406-15.2344 6.23437-15.25 6.31641-15.2598 6.41016-15.2637 6.50391-15.2676 6.62109-15.2695 6.76172-15.2695 6.94922-15.2695 7.10547-15.2617 7.23047-15.2461 7.35547-15.2305 7.45312-15.209 7.52344-15.1816 7.59375-15.1543 7.64062-15.1191 7.66406-15.0762 7.6875-15.0332 7.69922-14.9883 7.69922-14.9414L7.69922-1.61719 10.4414-1.61719C10.5039-1.61719 10.5625-1.59961 10.6172-1.56445 10.6719-1.5293 10.7168-1.47852 10.752-1.41211 10.7871-1.3457 10.8145-1.26172 10.834-1.16016 10.8535-1.05859 10.8633-0.9375 10.8633-0.796875Z" transform="translate(17.812 32)"/></g></g><text font-family="Calibri,Calibri_MSFontService,sans-serif" font-weight="400" font-size="24" transform="translate(927.116 152)">1</text><g clip-path="url(#clip5)" filter="url(#fx1)" transform="translate(922 121)"><g clip-path="url(#clip6)"><path d="M11.332-7.61719C11.332-6.45312 11.2402-5.39062 11.0566-4.42969 10.873-3.46875 10.5684-2.64258 10.1426-1.95117 9.7168-1.25977 9.16016-0.724609 8.47266-0.345703 7.78516 0.0332031 6.9375 0.222656 5.92969 0.222656 4.97656 0.222656 4.17383 0.0527344 3.52148-0.287109 2.86914-0.626953 2.34375-1.12695 1.94531-1.78711 1.54688-2.44727 1.26367-3.25977 1.0957-4.22461 0.927734-5.18945 0.84375-6.29688 0.84375-7.54688 0.84375-8.70312 0.9375-9.76367 1.125-10.7285 1.3125-11.6934 1.61719-12.5215 2.03906-13.2129 2.46094-13.9043 3.01562-14.4395 3.70312-14.8184 4.39062-15.1973 5.23438-15.3867 6.23438-15.3867 7.19531-15.3867 8.00195-15.2168 8.6543-14.877 9.30664-14.5371 9.83203-14.0371 10.2305-13.377 10.6289-12.7168 10.9121-11.9043 11.0801-10.9395 11.248-9.97461 11.332-8.86719 11.332-7.61719ZM9.26953-7.47656C9.26953-8.23438 9.24219-8.91406 9.1875-9.51562 9.13281-10.1172 9.05273-10.6484 8.94727-11.1094 8.8418-11.5703 8.70508-11.9668 8.53711-12.2988 8.36914-12.6309 8.16797-12.9043 7.93359-13.1191 7.69922-13.334 7.43164-13.4902 7.13086-13.5879 6.83008-13.6855 6.49219-13.7344 6.11719-13.7344 5.45312-13.7344 4.91406-13.5781 4.5-13.2656 4.08594-12.9531 3.75977-12.5234 3.52148-11.9766 3.2832-11.4297 3.12109-10.7891 3.03516-10.0547 2.94922-9.32031 2.90625-8.53125 2.90625-7.6875 2.90625-6.55469 2.96484-5.5918 3.08203-4.79883 3.19922-4.00586 3.38477-3.35937 3.63867-2.85938 3.89258-2.35938 4.2168-1.99609 4.61133-1.76953 5.00586-1.54297 5.48438-1.42969 6.04688-1.42969 6.48437-1.42969 6.86914-1.5 7.20117-1.64062 7.5332-1.78125 7.81836-1.98242 8.05664-2.24414 8.29492-2.50586 8.49219-2.82031 8.64844-3.1875 8.80469-3.55469 8.92969-3.96094 9.02344-4.40625 9.11719-4.85156 9.18164-5.33398 9.2168-5.85352 9.25195-6.37305 9.26953-6.91406 9.26953-7.47656Z" transform="translate(17.9786 32)"/></g></g><text font-family="Calibri,Calibri_MSFontService,sans-serif" font-weight="400" font-size="24" transform="translate(939.282 152)">0</text></g></svg>