<svg width="57" height="60" xmlns="http://www.w3.org/2000/svg" xmlns:xlink="http://www.w3.org/1999/xlink" overflow="hidden"><defs><filter id="fx0" x="-10%" y="-10%" width="120%" height="120%" filterUnits="userSpaceOnUse" primitiveUnits="userSpaceOnUse"><feComponentTransfer color-interpolation-filters="sRGB"><feFuncR type="discrete" tableValues="0 0"/><feFuncG type="discrete" tableValues="0 0"/><feFuncB type="discrete" tableValues="0 0"/><feFuncA type="linear" slope="0.4" intercept="0"/></feComponentTransfer><feGaussianBlur stdDeviation="0.572011 0.572011"/></filter><filter id="fx1" x="-10%" y="-10%" width="120%" height="120%" filterUnits="userSpaceOnUse" primitiveUnits="userSpaceOnUse"><feComponentTransfer color-interpolation-filters="sRGB"><feFuncR type="discrete" tableValues="0 0"/><feFuncG type="discrete" tableValues="0 0"/><feFuncB type="discrete" tableValues="0 0"/><feFuncA type="linear" slope="0.4" intercept="0"/></feComponentTransfer><feGaussianBlur stdDeviation="0.572011 0.572011"/></filter><clipPath id="clip2"><rect x="317" y="360" width="57" height="60"/></clipPath><clipPath id="clip3"><rect x="17" y="16" width="12" height="17"/></clipPath><clipPath id="clip4"><rect x="0" y="0" width="47" height="56"/></clipPath><clipPath id="clip5"><rect x="17" y="16" width="13" height="17"/></clipPath><clipPath id="clip6"><rect x="0" y="0" width="47" height="56"/></clipPath></defs><g clip-path="url(#clip2)" transform="translate(-317 -360)"><path d="M318 370C318 365.03 322.03 361 327 361L363 361C367.97 361 372 365.03 372 370L372 406C372 410.97 367.97 415 363 415L327 415C322.03 415 318 410.97 318 406Z" fill="#54C7D0" fill-rule="evenodd"/><g clip-path="url(#clip3)" filter="url(#fx0)" transform="translate(316 364)"><g clip-path="url(#clip4)"><path d="M10.8281-0.867188C10.8281-0.726562 10.8184-0.601562 10.7988-0.492188 10.7793-0.382812 10.752-0.291016 10.7168-0.216797 10.6816-0.142578 10.6348-0.0878906 10.5762-0.0527344 10.5176-0.0175781 10.4531 0 10.3828 0L2.00391 0C1.89453 0 1.79883-0.0136719 1.7168-0.0410156 1.63477-0.0683594 1.56445-0.113281 1.50586-0.175781 1.44727-0.238281 1.4043-0.328125 1.37695-0.445312 1.34961-0.5625 1.33594-0.707031 1.33594-0.878906 1.33594-1.03516 1.34198-1.17188 1.35406-1.28906 1.36615-1.40625 1.3923-1.50977 1.43253-1.59961 1.47275-1.68945 1.52307-1.7793 1.5835-1.86914 1.64392-1.95898 1.72241-2.05469 1.81897-2.15625L4.84991-5.27344C5.55035-5.99219 6.11191-6.63672 6.53458-7.20703 6.95724-7.77734 7.28329-8.29688 7.51273-8.76562 7.74216-9.23438 7.8931-9.66016 7.96555-10.043 8.03799-10.4258 8.07422-10.7852 8.07422-11.1211 8.07422-11.457 8.01779-11.7754 7.90494-12.0762 7.79208-12.377 7.62884-12.6406 7.41522-12.8672 7.2016-13.0937 6.93356-13.2734 6.61111-13.4062 6.28867-13.5391 5.91785-13.6055 5.49866-13.6055 5.00696-13.6055 4.56561-13.5391 4.17462-13.4062 3.78363-13.2734 3.44101-13.1289 3.14676-12.9727 2.85251-12.8164 2.60666-12.6719 2.40921-12.5391 2.21176-12.4062 2.06464-12.3398 1.96783-12.3398 1.91144-12.3398 1.86105-12.3555 1.81668-12.3867 1.77231-12.418 1.73602-12.4687 1.70782-12.5391 1.67963-12.6094 1.65747-12.7031 1.64136-12.8203 1.62524-12.9375 1.61719-13.0781 1.61719-13.2422 1.61719-13.3594 1.62109-13.4609 1.62891-13.5469 1.63672-13.6328 1.65039-13.707 1.66992-13.7695 1.68945-13.832 1.71484-13.8906 1.74609-13.9453 1.77734-14 1.83984-14.0684 1.93359-14.1504 2.02734-14.2324 2.18945-14.3437 2.41992-14.4844 2.65039-14.625 2.93945-14.7637 3.28711-14.9004 3.63477-15.0371 4.01758-15.1523 4.43555-15.2461 4.85352-15.3398 5.29297-15.3867 5.75391-15.3867 6.48828-15.3867 7.13086-15.2832 7.68164-15.0762 8.23242-14.8691 8.68945-14.5859 9.05273-14.2266 9.41602-13.8672 9.6875-13.4492 9.86719-12.9727 10.0469-12.4961 10.1367-11.9883 10.1367-11.4492 10.1367-10.9648 10.0938-10.4824 10.0078-10.002 9.92188-9.52148 9.74023-9.00195 9.46289-8.44336 9.18555-7.88477 8.78516-7.26367 8.26172-6.58008 7.73828-5.89648 7.04297-5.10938 6.17578-4.21875L3.77344-1.71094 10.3711-1.71094C10.4336-1.71094 10.4941-1.69336 10.5527-1.6582 10.6113-1.62305 10.6621-1.57031 10.7051-1.5 10.748-1.42969 10.7793-1.3418 10.7988-1.23633 10.8184-1.13086 10.8281-1.00781 10.8281-0.867188Z" transform="translate(17.3389 32)"/></g></g><text font-family="Calibri,Calibri_MSFontService,sans-serif" font-weight="400" font-size="24" transform="translate(332.642 396)">2</text><g clip-path="url(#clip5)" filter="url(#fx1)" transform="translate(328 364)"><g clip-path="url(#clip6)"><path d="M10.9453-8.17969C10.9453-7.52344 10.9062-6.85937 10.8281-6.1875 10.75-5.51562 10.6172-4.86914 10.4297-4.24805 10.2422-3.62695 9.99023-3.04492 9.67383-2.50195 9.35742-1.95898 8.95898-1.48437 8.47852-1.07812 7.99805-0.671875 7.42773-0.353516 6.76758-0.123047 6.10742 0.107422 5.33984 0.222656 4.46484 0.222656 4.12891 0.222656 3.80273 0.201172 3.48633 0.158203 3.16992 0.115234 2.88477 0.0625 2.63086 0 2.37695-0.0625 2.16406-0.128906 1.99219-0.199219 1.82031-0.269531 1.69531-0.339844 1.61719-0.410156 1.53906-0.480469 1.48242-0.576172 1.44727-0.697266 1.41211-0.818359 1.39453-0.980469 1.39453-1.18359 1.39453-1.35547 1.40039-1.49219 1.41211-1.59375 1.42383-1.69531 1.44141-1.77344 1.46484-1.82812 1.48828-1.88281 1.52148-1.91992 1.56445-1.93945 1.60742-1.95898 1.66016-1.96875 1.72266-1.96875 1.80859-1.96875 1.92969-1.93945 2.08594-1.88086 2.24219-1.82227 2.43945-1.75781 2.67773-1.6875 2.91602-1.61719 3.19531-1.55273 3.51562-1.49414 3.83594-1.43555 4.19531-1.40625 4.59375-1.40625 5.35156-1.40625 6.00195-1.55273 6.54492-1.8457 7.08789-2.13867 7.53125-2.53125 7.875-3.02344 8.21875-3.51562 8.47656-4.08594 8.64844-4.73438 8.82031-5.38281 8.91406-6.06641 8.92969-6.78516 8.51562-6.54297 8.01953-6.32812 7.44141-6.14062 6.86328-5.95312 6.19922-5.85938 5.44922-5.85938 4.60547-5.85938 3.89648-5.97461 3.32227-6.20508 2.74805-6.43555 2.28711-6.75 1.93945-7.14844 1.5918-7.54687 1.3418-8.01953 1.18945-8.56641 1.03711-9.11328 0.960937-9.71094 0.960938-10.3594 0.960937-11.0312 1.05859-11.6699 1.25391-12.2754 1.44922-12.8809 1.75391-13.4141 2.16797-13.875 2.58203-14.3359 3.10938-14.7031 3.75-14.9766 4.39062-15.25 5.15625-15.3867 6.04688-15.3867 6.67969-15.3867 7.24023-15.3066 7.72852-15.1465 8.2168-14.9863 8.64062-14.7559 9-14.4551 9.35938-14.1543 9.66406-13.791 9.91406-13.3652 10.1641-12.9395 10.3652-12.457 10.5176-11.918 10.6699-11.3789 10.7793-10.7949 10.8457-10.166 10.9121-9.53711 10.9453-8.875 10.9453-8.17969ZM8.89453-8.40234C8.89453-9.40234 8.82812-10.2441 8.69531-10.9277 8.5625-11.6113 8.36719-12.1641 8.10938-12.5859 7.85156-13.0078 7.53516-13.3125 7.16016-13.5 6.78516-13.6875 6.35156-13.7812 5.85938-13.7812 5.35156-13.7812 4.91797-13.6895 4.55859-13.5059 4.19922-13.3223 3.9043-13.0762 3.67383-12.7676 3.44336-12.459 3.27344-12.1094 3.16406-11.7188 3.05469-11.3281 3-10.9258 3-10.5117 3-10.0508 3.04883-9.62891 3.14648-9.24609 3.24414-8.86328 3.40234-8.53906 3.62109-8.27344 3.83984-8.00781 4.125-7.80273 4.47656-7.6582 4.82812-7.51367 5.26172-7.44141 5.77734-7.44141 6.36328-7.44141 6.92969-7.5293 7.47656-7.70508 8.02344-7.88086 8.49609-8.11328 8.89453-8.40234Z" transform="translate(17.5056 32)"/></g></g><text font-family="Calibri,Calibri_MSFontService,sans-serif" font-weight="400" font-size="24" transform="translate(344.809 396)">9</text></g></svg>