<svg width="56" height="60" xmlns="http://www.w3.org/2000/svg" xmlns:xlink="http://www.w3.org/1999/xlink" overflow="hidden"><defs><filter id="fx0" x="-10%" y="-10%" width="120%" height="120%" filterUnits="userSpaceOnUse" primitiveUnits="userSpaceOnUse"><feComponentTransfer color-interpolation-filters="sRGB"><feFuncR type="discrete" tableValues="0 0"/><feFuncG type="discrete" tableValues="0 0"/><feFuncB type="discrete" tableValues="0 0"/><feFuncA type="linear" slope="0.4" intercept="0"/></feComponentTransfer><feGaussianBlur stdDeviation="0.572011 0.572011"/></filter><clipPath id="clip1"><rect x="168" y="117" width="56" height="60"/></clipPath><clipPath id="clip2"><rect x="17" y="16" width="12" height="17"/></clipPath><clipPath id="clip3"><rect x="0" y="0" width="46" height="56"/></clipPath></defs><g clip-path="url(#clip1)" transform="translate(-168 -117)"><path d="M169 127C169 122.03 173.03 118 178 118L214 118C218.97 118 223 122.03 223 127L223 163C223 167.97 218.97 172 214 172L178 172C173.03 172 169 167.97 169 163Z" fill="#48C9B0" fill-rule="evenodd"/><g clip-path="url(#clip2)" filter="url(#fx0)" transform="translate(174 121)"><g clip-path="url(#clip3)"><path d="M10.1602-4.25391C10.1602-3.54297 10.0293-2.91016 9.76758-2.35547 9.50586-1.80078 9.14258-1.33008 8.67773-0.943359 8.21289-0.556641 7.66602-0.265625 7.03711-0.0703125 6.4082 0.125 5.73047 0.222656 5.00391 0.222656 4.49609 0.222656 4.02539 0.179687 3.5918 0.09375 3.1582 0.0078125 2.77148-0.0976562 2.43164-0.222656 2.0918-0.347656 1.80664-0.476562 1.57617-0.609375 1.3457-0.742187 1.18555-0.855469 1.0957-0.949219 1.00586-1.04297 0.939453-1.16211 0.896484-1.30664 0.853516-1.45117 0.832031-1.64453 0.832031-1.88672 0.832031-2.05859 0.839844-2.20117 0.855469-2.31445 0.871094-2.42773 0.894531-2.51953 0.925781-2.58984 0.957031-2.66016 0.996094-2.70898 1.04297-2.73633 1.08984-2.76367 1.14453-2.77734 1.20703-2.77734 1.31641-2.77734 1.4707-2.71094 1.66992-2.57812 1.86914-2.44531 2.125-2.30078 2.4375-2.14453 2.75-1.98828 3.12695-1.8418 3.56836-1.70508 4.00977-1.56836 4.51953-1.5 5.09766-1.5 5.53516-1.5 5.93555-1.55859 6.29883-1.67578 6.66211-1.79297 6.97461-1.95898 7.23633-2.17383 7.49805-2.38867 7.69922-2.65234 7.83984-2.96484 7.98047-3.27734 8.05078-3.63281 8.05078-4.03125 8.05078-4.46094 7.95312-4.82812 7.75781-5.13281 7.5625-5.4375 7.30469-5.70508 6.98438-5.93555 6.66406-6.16602 6.29883-6.37695 5.88867-6.56836 5.47852-6.75977 5.05859-6.95508 4.62891-7.1543 4.19922-7.35352 3.78125-7.57422 3.375-7.81641 2.96875-8.05859 2.60547-8.34375 2.28516-8.67188 1.96484-9 1.70508-9.38477 1.50586-9.82617 1.30664-10.2676 1.20703-10.7969 1.20703-11.4141 1.20703-12.0469 1.32227-12.6113 1.55273-13.1074 1.7832-13.6035 2.10352-14.0195 2.51367-14.3555 2.92383-14.6914 3.41211-14.9473 3.97852-15.123 4.54492-15.2988 5.15625-15.3867 5.8125-15.3867 6.14844-15.3867 6.48633-15.3574 6.82617-15.2988 7.16602-15.2402 7.48633-15.1621 7.78711-15.0645 8.08789-14.9668 8.35547-14.8574 8.58984-14.7363 8.82422-14.6152 8.97852-14.5176 9.05273-14.4434 9.12695-14.3691 9.17578-14.3105 9.19922-14.2676 9.22266-14.2246 9.24219-14.1699 9.25781-14.1035 9.27344-14.0371 9.28516-13.957 9.29297-13.8633 9.30078-13.7695 9.30469-13.6484 9.30469-13.5 9.30469-13.3594 9.29883-13.2344 9.28711-13.125 9.27539-13.0156 9.25781-12.9238 9.23438-12.8496 9.21094-12.7754 9.17773-12.7207 9.13477-12.6855 9.0918-12.6504 9.04297-12.6328 8.98828-12.6328 8.90234-12.6328 8.76758-12.6875 8.58398-12.7969 8.40039-12.9062 8.17578-13.0293 7.91016-13.166 7.64453-13.3027 7.33008-13.4277 6.9668-13.541 6.60352-13.6543 6.19531-13.7109 5.74219-13.7109 5.32031-13.7109 4.95312-13.6543 4.64062-13.541 4.32812-13.4277 4.07031-13.2773 3.86719-13.0898 3.66406-12.9023 3.51172-12.6797 3.41016-12.4219 3.30859-12.1641 3.25781-11.8906 3.25781-11.6016 3.25781-11.1797 3.35547-10.8164 3.55078-10.5117 3.74609-10.207 4.00586-9.9375 4.33008-9.70312 4.6543-9.46875 5.02344-9.25391 5.4375-9.05859 5.85156-8.86328 6.27344-8.66602 6.70312-8.4668 7.13281-8.26758 7.55469-8.04883 7.96875-7.81055 8.38281-7.57227 8.75195-7.29102 9.07617-6.9668 9.40039-6.64258 9.66211-6.25977 9.86133-5.81836 10.0605-5.37695 10.1602-4.85547 10.1602-4.25391Z" transform="translate(17.2056 32)"/></g></g><text font-family="Calibri,Calibri_MSFontService,sans-serif" font-weight="400" font-size="24" transform="translate(190.509 152)">S</text></g></svg>